<?xml version="1.0" standalone="no"?>
<!DOCTYPE svg PUBLIC "-//W3C//DTD SVG 20010904//EN"
        "http://www.w3.org/TR/2001/REC-SVG-20010904/DTD/svg10.dtd">
<svg version="1.0" xmlns="http://www.w3.org/2000/svg"
     width="3000.000000pt" height="2000.000000pt" viewBox="0 0 3000.000000 2000.000000"
     preserveAspectRatio="xMidYMid meet">

    <g transform="translate(0.000000,2000.000000) scale(0.100000,-0.100000)"
       fill="#000000" stroke="none">
        <path opacity="50" fill="#f5c21b" d="M6273 19993 c4 -4 623 -623 1375 -1376 l1367 -1367 969 969 c772 772
968 973 962 987 -6 14 -197 -172 -969 -944 l-963 -963 -718 720 c-458 460
-715 725 -710 732 4 8 3 9 -5 5 -7 -5 -246 227 -636 616 -482 481 -631 624
-652 626 -16 2 -25 0 -20 -5z"/>
        <path fill="#f5c21b" d="M11355 19640 c-198 -198 -356 -360 -352 -360 34 0 126 83 422 379
279 280 335 341 315 341 -20 0 -104 -79 -385 -360z"/>
        <path fill="#f5c21b" d="M18650 19455 c-545 -545 -545 -545 -525 -565 20 -20 20 -20 585 545
l565 565 -40 0 c-40 0 -47 -7 -585 -545z"/>
        <path fill="#f5c21b" d="M22284 19990 c-5 -5 -180 -15 -391 -23 -210 -7 -385 -16 -388 -19 -3
-3 -12 -177 -19 -387 -8 -210 -16 -385 -19 -387 -3 -3 -177 -11 -387 -19 -211
-8 -385 -17 -388 -20 -3 -3 -12 -177 -19 -387 -9 -241 -18 -385 -24 -389 -6
-3 -135 -9 -287 -13 -153 -4 -297 -9 -321 -13 l-44 -6 6 -145 c4 -80 9 -147
12 -150 6 -6 934 23 940 29 1 2 9 178 16 391 l13 387 50 5 c28 3 204 10 391
16 187 6 341 12 342 14 1 1 7 150 13 332 6 181 13 356 16 390 l5 61 387 13
c213 7 389 14 391 16 2 2 6 73 9 159 5 151 4 155 -16 155 -19 0 -20 -7 -24
-134 -1 -74 -5 -137 -8 -140 -3 -2 -176 -10 -385 -17 -209 -6 -384 -15 -388
-19 -5 -4 -15 -180 -22 -390 -8 -210 -16 -384 -18 -386 -2 -2 -176 -11 -387
-18 -242 -9 -385 -18 -389 -25 -4 -6 -12 -180 -19 -388 -7 -207 -15 -379 -18
-382 -7 -8 -854 -35 -861 -27 -3 3 -6 54 -7 113 l-1 108 322 11 c178 6 325 13
327 15 3 2 10 178 17 391 l13 387 80 5 c45 3 220 10 390 16 170 5 311 12 313
13 1 2 8 143 13 313 6 170 13 345 16 390 l6 81 226 7 c125 3 300 9 389 13
l161 6 4 29 c3 21 0 28 -12 28 -9 0 -20 -4 -26 -10z"/>
        <path fill="#2a4d9c" d="M23505 17767 c-1227 -1227 -2270 -2274 -2318 -2325 -142 -152 -187
-252 -187 -416 0 -157 57 -293 164 -394 184 -172 457 -197 666 -62 25 16 1260
1245 2745 2730 2135 2136 2694 2701 2672 2698 -21 -2 -608 -584 -2720 -2694
-2651 -2650 -2693 -2691 -2767 -2727 -130 -62 -257 -71 -386 -27 -125 43 -231
140 -291 266 -33 69 -37 87 -41 179 -5 114 14 202 62 279 13 22 1078 1094
2367 2383 l2344 2343 -40 0 c-40 0 -49 -9 -2270 -2233z"/>
        <path fill="#2a4d9c" d="M29305 18800 c-613 -613 -688 -691 -675 -705 14 -13 91 61 694 664
598 599 677 681 674 705 -3 24 -73 -44 -693 -664z"/>
        <path fill="#2a4d9c" d="M18753 18701 l-650 -650 21 -20 22 -20 649 649 c551 551 648 653 639
667 -6 9 -15 18 -20 20 -6 2 -303 -289 -661 -646z"/>
        <path fill="#2a4d9c" d="M885 18280 c-673 -673 -803 -810 -767 -810 4 0 360 353 792 785 634
634 780 785 760 785 -20 0 -184 -159 -785 -760z"/>
        <path fill="#2a4d9c" d="M1136 18017 c-888 -884 -998 -996 -991 -1017 6 -20 112 82 1016 986
555 555 1009 1012 1009 1016 0 38 -141 -96 -1034 -985z"/>
        <path fill="#2a4d9c" d="M1397 17762 c-620 -620 -1127 -1132 -1127 -1139 0 -6 5 -15 10 -18 6
-4 521 505 1145 1131 1042 1046 1144 1153 1105 1154 -3 0 -512 -507 -1133
-1128z"/>
        <path fill="#2a4d9c" d="M854 18751 c-90 -63 -421 -400 -463 -471 -33 -55 -33 -55 -6 -30 25
22 213 210 468 468 45 45 79 82 76 82 -3 0 -37 -22 -75 -49z"/>
        <path fill="#2a4d9c" d="M1656 17501 c-947 -947 -1188 -1193 -1182 -1207 6 -14 244 219 1201
1176 657 657 1194 1199 1192 1204 -2 6 -7 11 -13 13 -5 2 -544 -532 -1198
-1186z"/>
        <path fill="#2a4d9c" d="M16000 18463 c0 -10 36 -53 79 -95 l79 -78 -86 -86 c-79 -79 -84 -87
-68 -102 15 -15 22 -10 104 71 l87 87 85 -85 c66 -67 87 -82 98 -73 11 9 -3
28 -72 97 l-85 86 84 89 c46 49 82 93 79 98 -12 19 -37 3 -112 -71 l-79 -80
-81 80 c-80 78 -112 96 -112 62z"/>
        <path fill="#2a4d9c" d="M16694 18469 c-4 -7 30 -48 80 -98 l86 -86 -86 -86 c-69 -69 -83 -88
-72 -97 11 -9 32 6 98 73 l85 85 86 -86 c71 -71 88 -83 97 -71 10 12 -2 29
-68 96 -44 44 -80 84 -80 88 0 4 37 45 82 90 65 65 80 85 70 95 -10 10 -30 -5
-95 -70 -45 -45 -86 -82 -90 -82 -4 0 -44 36 -88 80 -45 44 -85 80 -90 80 -4
0 -11 -5 -15 -11z"/>
        <path fill="#f5c21b" d="M26650 18473 c-301 -47 -526 -141 -748 -311 -93 -71 -241 -225 -314
-328 -117 -164 -215 -399 -254 -609 -25 -135 -26 -411 -1 -540 41 -212 123
-412 243 -593 87 -131 281 -321 422 -413 l112 -73 -354 -356 -355 -355 629
-630 630 -629 -128 -131 c-114 -114 -202 -226 -242 -305 -6 -14 83 69 199 185
l211 209 41 -39 c88 -86 274 -275 277 -283 1 -4 -239 -248 -533 -542 -528
-528 -535 -535 -535 -575 l0 -40 558 558 558 558 159 -161 c88 -88 162 -163
163 -165 2 -2 -312 -319 -697 -705 -613 -613 -701 -704 -701 -730 0 -17 3 -30
8 -30 4 0 327 320 717 710 390 391 714 709 718 707 17 -5 317 -312 317 -323 0
-7 -10 -21 -22 -32 -13 -10 -369 -365 -791 -788 -727 -729 -768 -772 -761
-798 6 -27 42 7 813 778 l806 806 158 -157 c86 -87 160 -162 164 -166 4 -4
-372 -387 -834 -850 -796 -796 -841 -843 -827 -862 14 -18 58 24 859 825 464
464 848 841 852 837 4 -4 79 -78 166 -164 l157 -158 -845 -845 c-805 -805
-844 -846 -828 -863 17 -16 58 23 863 828 l845 845 158 -157 c86 -87 160 -162
164 -166 4 -4 -357 -372 -802 -818 -811 -810 -827 -828 -769 -829 7 0 372 361
813 801 441 441 805 799 809 795 4 -3 78 -77 165 -163 l157 -158 -725 -725
c-399 -399 -723 -729 -719 -733 26 -26 75 19 760 704 392 391 717 710 723 708
10 -4 183 -172 286 -278 l39 -41 -579 -580 c-571 -571 -579 -580 -543 -580 35
0 59 22 592 555 305 305 559 556 565 557 7 2 83 -69 171 -157 l160 -160 -272
-272 c-150 -150 -268 -273 -263 -273 6 1 40 18 78 38 52 30 116 86 287 257
211 210 220 221 220 258 0 25 -4 36 -11 31 -7 -4 -80 62 -175 157 l-163 163
174 172 c166 164 175 175 175 211 l0 38 -193 -193 -192 -192 -165 165 -165
165 355 355 c328 328 355 358 358 393 3 36 -9 25 -372 -338 l-376 -375 -160
160 c-88 88 -160 164 -160 169 0 4 241 249 535 543 510 510 535 537 535 572 0
35 -13 23 -558 -522 l-557 -557 -165 165 -165 165 723 723 c681 681 722 724
722 757 0 34 -29 6 -740 -705 l-740 -740 -165 165 -165 165 830 830 c655 655
828 833 818 843 -6 6 -17 12 -22 12 -6 0 -382 -371 -836 -825 l-825 -825 -165
165 -165 165 790 790 c434 434 787 792 784 794 -29 29 -56 3 -829 -769 l-780
-780 -165 165 -165 165 701 701 c700 700 713 714 653 714 -7 0 -323 -310 -702
-689 l-689 -689 -164 164 -164 164 545 545 545 545 -40 0 c-39 0 -48 -9 -565
-525 l-525 -525 -163 163 -162 162 198 199 c132 134 184 191 157 176 -104 -61
-169 -112 -278 -219 l-118 -115 -614 614 -615 615 347 347 346 347 46 -24
c196 -99 501 -153 755 -134 346 26 673 168 919 398 20 19 37 38 37 41 0 3 -29
1 -63 -5 -49 -8 -74 -18 -108 -46 -115 -95 -302 -194 -454 -243 -277 -88 -584
-93 -852 -12 -94 28 -213 76 -213 84 0 4 120 127 267 274 236 236 265 269 253
283 -12 15 -44 -14 -291 -261 l-277 -277 -49 28 c-105 61 -212 143 -299 230
-207 207 -334 436 -400 720 -25 108 -28 139 -28 305 -1 202 10 272 66 450 138
435 484 783 923 928 176 59 301 76 515 70 169 -5 176 -4 228 20 29 13 52 26
50 28 -2 2 -46 10 -98 19 -87 14 -361 19 -430 8z"/>
        <path fill="#2a4d9c" d="M1915 17245 c-1075 -1069 -1198 -1195 -1185 -1210 12 -15 136 106
1207 1177 656 656 1193 1198 1193 1205 0 6 -4 14 -8 17 -4 3 -548 -532 -1207
-1189z"/>
        <path fill="#2a4d9c" d="M2880 17695 l-436 -436 -104 25 c-58 14 -127 28 -155 32 l-49 7 77
-75 c42 -42 89 -79 104 -82 25 -7 -9 -43 -630 -664 -361 -361 -657 -660 -657
-663 0 -4 8 -10 17 -13 13 -5 175 151 683 658 l665 665 85 -28 c104 -34 240
-90 240 -99 0 -4 -295 -302 -655 -662 -360 -360 -655 -658 -655 -662 0 -36
115 72 692 649 l658 658 67 -34 c70 -34 223 -129 223 -138 0 -3 -266 -269
-591 -592 -539 -534 -589 -586 -563 -589 24 -3 89 58 610 579 l583 582 68 -55
c37 -31 93 -79 123 -106 l55 -51 -390 -391 c-214 -215 -381 -387 -370 -383 69
28 132 84 411 365 223 225 315 325 329 356 10 23 21 42 26 42 10 0 99 -98 172
-190 195 -243 349 -565 416 -866 52 -232 65 -529 36 -758 -84 -634 -439 -1192
-986 -1549 -449 -293 -1014 -405 -1555 -307 -544 98 -1056 420 -1368 863 -26
37 -50 67 -52 67 -2 0 -4 -45 -4 -100 l0 -99 62 -73 c284 -335 663 -585 1079
-713 228 -70 416 -97 669 -98 382 0 699 75 1035 245 446 226 798 582 1021
1033 232 471 294 1002 178 1523 -55 246 -180 538 -323 753 -122 183 -337 417
-488 531 -29 22 -53 43 -53 47 0 3 75 81 166 172 130 130 165 171 162 188 -2
19 -31 -6 -183 -157 l-181 -181 -69 46 c-39 24 -103 63 -142 85 -40 22 -73 43
-73 46 0 4 138 145 306 313 242 242 305 311 300 325 -6 15 -69 -44 -329 -302
l-322 -321 -40 20 c-52 26 -224 94 -259 103 -27 6 -11 24 398 433 378 378 425
429 414 444 -12 15 -60 -30 -448 -418z"/>
        <path fill="#2a4d9c" d="M16007 17783 c-14 -13 -6 -24 73 -102 44 -43 80 -83 80 -87 0 -5 -37
-46 -82 -91 -65 -65 -80 -85 -70 -95 10 -10 30 5 95 70 45 45 86 82 90 82 5 0
44 -36 89 -80 66 -65 83 -78 95 -68 12 9 -1 26 -71 97 l-86 86 85 85 c67 66
82 87 73 98 -9 11 -28 -3 -97 -72 l-86 -86 -85 85 c-85 86 -91 90 -103 78z"/>
        <path fill="#2a4d9c" d="M16702 17778 c-9 -11 6 -31 73 -98 l85 -85 -85 -85 c-65 -65 -82 -88
-75 -100 8 -12 27 2 97 72 l88 88 85 -85 c65 -65 88 -82 100 -75 12 8 -2 27
-72 97 l-88 88 88 88 c70 70 84 89 72 97 -12 7 -35 -10 -100 -75 l-85 -85 -86
86 c-69 69 -88 83 -97 72z"/>
        <path fill="#2a4d9c" d="M16009 17084 c-10 -13 1 -29 72 -100 l84 -84 -85 -85 c-67 -67 -82
-87 -72 -97 10 -10 30 5 97 72 l85 85 83 -83 c45 -45 88 -82 95 -82 28 0 7 34
-70 110 l-81 81 87 88 c68 69 84 89 74 99 -10 10 -30 -6 -99 -74 l-87 -87 -86
86 c-72 73 -87 83 -97 71z"/>
        <path fill="#2a4d9c" d="M16702 17087 c-10 -12 3 -30 74 -100 l87 -86 -59 -60 c-114 -115
-116 -118 -101 -124 9 -3 45 24 95 74 45 43 84 79 87 79 4 0 43 -36 87 -81 49
-49 85 -78 94 -75 8 3 14 9 14 13 0 5 -38 46 -83 91 l-84 83 83 87 c64 67 80
90 72 100 -9 10 -29 -5 -97 -72 l-86 -86 -86 86 c-72 71 -87 83 -97 71z"/>
        <path fill="#f5c21b" d="M18977 16520 c-390 -47 -687 -384 -687 -781 0 -199 66 -370 210 -542
8 -10 42 -40 75 -66 221 -177 502 -225 764 -133 118 42 186 87 291 192 107
107 163 199 200 330 23 82 40 280 23 280 -6 0 -12 -44 -15 -102 -17 -328 -243
-608 -563 -700 -103 -29 -286 -31 -385 -5 -76 20 -191 73 -252 115 -117 81
-232 228 -281 360 -59 161 -63 350 -9 507 44 130 92 207 191 305 99 98 167
141 283 181 83 28 256 56 284 45 10 -4 14 -1 12 6 -6 16 -52 18 -141 8z"/>
        <path fill="#f5c21b" d="M19340 16470 c0 -6 21 -20 48 -32 162 -75 280 -188 372 -358 42 -77
69 -92 33 -18 -62 129 -152 237 -258 313 -88 62 -195 114 -195 95z"/>
        <path d="M19999 15913 c-13 -16 -12 -17 4 -4 16 13 21 21 13 21 -2 0 -10 -8
-17 -17z"/>
        <path fill="#2a4d9c" d="M24099 14185 c-72 -39 -55 -151 27 -171 34 -9 91 18 105 50 19 40 3
94 -34 116 -38 23 -62 24 -98 5z"/>
        <path fill="#2a4d9c" d="M7825 13110 c-551 -551 -648 -653 -639 -667 6 -9 15 -18 20 -20 9 -3
1296 1278 1302 1295 1 5 -6 16 -16 25 -17 15 -52 -18 -667 -633z"/>
        <path fill="#2a4d9c" d="M23515 13605 c-19 -18 -25 -35 -25 -65 0 -56 34 -90 90 -90 56 0 90
34 90 90 0 56 -34 90 -90 90 -30 0 -47 -6 -65 -25z"/>
        <path fill="#2a4d9c" d="M24659 13617 c-71 -55 -37 -167 51 -167 45 0 77 24 89 66 10 37 -8
87 -38 103 -26 15 -82 13 -102 -2z"/>
        <path fill="#2a4d9c" d="M22974 13056 c-56 -25 -68 -94 -25 -147 15 -19 29 -24 66 -24 37 0
51 5 66 24 41 51 33 113 -20 144 -34 20 -46 21 -87 3z"/>
        <path fill="#2a4d9c" d="M24098 13052 c-87 -53 -33 -186 67 -168 83 16 100 132 24 171 -36 19
-58 18 -91 -3z"/>
        <path fill="#2a4d9c" d="M25233 13054 c-62 -31 -64 -128 -2 -159 43 -23 77 -18 110 14 77 77
-11 194 -108 145z"/>
        <path fill="#2a4d9c" d="M7825 12250 c-650 -650 -650 -650 -630 -670 l20 -20 650 650 c650
650 650 650 630 670 l-20 20 -650 -650z"/>
        <path fill="#2a4d9c" d="M22405 12488 c-32 -18 -44 -40 -45 -80 0 -82 97 -122 155 -63 71 71
-23 193 -110 143z"/>
        <path fill="#2a4d9c" d="M23516 12474 c-28 -29 -35 -79 -15 -115 16 -30 66 -48 103 -38 101
29 81 179 -24 179 -27 0 -45 -7 -64 -26z"/>
        <path fill="#2a4d9c" d="M24664 12488 c-43 -20 -58 -99 -26 -137 42 -52 131 -40 156 20 35 84
-47 158 -130 117z"/>
        <path fill="#2a4d9c" d="M22984 11930 c-12 -4 -31 -21 -44 -37 -64 -81 51 -187 133 -123 55
43 39 137 -26 160 -34 12 -35 12 -63 0z"/>
        <path fill="#2a4d9c" d="M24108 11929 c-32 -12 -62 -71 -53 -106 18 -73 103 -97 156 -44 48
48 31 128 -32 150 -37 13 -35 13 -71 0z"/>
        <path fill="#2a4d9c" d="M23519 11341 c-48 -48 -38 -116 22 -147 62 -32 129 13 129 86 0 30
-6 44 -31 64 -41 35 -83 34 -120 -3z"/>
        <path fill="#f5c21b" d="M0 8982 c0 -27 2097 -2119 2110 -2106 8 8 -281 304 -1045 1068 -581
581 -1058 1056 -1061 1056 -2 0 -4 -8 -4 -18z"/>
        <path fill="#f5c21b" d="M21512 7077 l-653 -653 21 -19 c21 -19 22 -18 673 633 l652 652 -20
20 -20 20 -653 -653z"/>
        <path fill="#f5c21b" d="M21510 6220 l-652 -653 21 -21 21 -21 652 653 653 652 -21 21 -21 21
-653 -652z"/>
        <path fill="#f5c21b" d="M2505 6480 c-5 -8 219 -239 629 -649 l636 -636 -1886 -1886 c-1509
-1509 -1885 -1890 -1882 -1908 2 -17 280 256 1431 1406 785 785 1434 1443
1442 1460 9 18 24 33 33 33 9 0 217 200 462 445 l444 444 -20 22 c-21 25
-1205 1208 -1252 1252 -21 20 -32 25 -37 17z"/>
        <path fill="#f5c21b" d="M9203 6225 c-29 -8 -81 -28 -115 -46 -57 -28 -356 -324 -3136 -3102
-2743 -2743 -3069 -3072 -3046 -3075 24 -3 366 335 3088 3056 3272 3271 3087
3092 3223 3127 312 81 623 -162 623 -488 0 -65 -20 -145 -56 -223 -24 -54
-280 -312 -2733 -2766 -2412 -2414 -2703 -2708 -2676 -2708 27 0 335 305 2716
2687 1833 1834 2695 2703 2713 2736 43 76 67 155 73 247 17 256 -153 490 -404
555 -71 19 -201 18 -270 0z"/>
        <path fill="#f5c21b" d="M17790 4454 c-284 -61 -518 -286 -596 -574 -25 -90 -25 -300 0 -389
49 -181 170 -353 318 -454 89 -61 256 -127 320 -127 42 0 12 16 -59 33 -209
47 -400 201 -499 402 -64 130 -79 196 -78 345 0 129 7 168 51 280 94 239 325
427 579 471 102 18 262 6 359 -25 258 -84 451 -288 517 -548 27 -108 22 -307
-11 -408 -24 -76 -23 -70 -11 -70 5 0 19 30 31 68 33 103 38 301 10 413 -91
361 -402 601 -773 598 -51 0 -122 -7 -158 -15z"/>
        <path fill="#f5c21b" d="M21877 2102 c-1889 -1888 -2096 -2097 -2071 -2100 24 -3 244 213
2098 2067 l2071 2071 350 -350 c192 -192 351 -347 354 -344 22 22 -15 66 -348
398 l-356 356 -2098 -2098z"/>
        <path fill="#2a4d9c" d="M9794 4089 c-4 -6 29 -47 77 -95 l83 -83 -19 -23 c-11 -13 -48 -51
-82 -86 -39 -39 -60 -68 -56 -77 3 -8 8 -15 12 -15 4 0 44 38 91 85 l84 86 86
-86 c68 -67 88 -83 98 -73 10 10 -5 30 -73 98 l-85 86 80 79 c44 44 80 85 80
92 0 30 -23 17 -98 -57 -45 -44 -85 -80 -90 -80 -4 0 -43 36 -87 80 -44 44
-83 80 -87 80 -4 0 -10 -5 -14 -11z"/>
        <path fill="#2a4d9c" d="M10492 4088 c-9 -11 6 -31 73 -98 l85 -85 -86 -86 c-69 -69 -83 -88
-72 -97 11 -9 32 6 98 73 l85 85 86 -86 c69 -69 88 -83 97 -72 9 11 -6 32 -73
98 l-85 85 87 87 c69 69 85 90 75 100 -10 10 -31 -6 -100 -75 l-87 -87 -86 86
c-69 69 -88 83 -97 72z"/>
        <path fill="#2a4d9c" d="M14226 3111 l-648 -649 20 -20 20 -20 648 650 c357 357 651 651 654
654 5 6 -28 34 -39 34 -4 0 -298 -292 -655 -649z"/>
        <path fill="#2a4d9c" d="M9801 3396 c-9 -10 6 -31 69 -94 44 -44 80 -84 80 -89 0 -4 -37 -45
-82 -90 -65 -65 -80 -85 -70 -95 10 -10 30 5 95 70 45 45 85 82 89 82 3 0 43
-36 88 -80 73 -72 100 -88 100 -60 0 5 -37 46 -82 90 l-81 81 87 88 c68 69 84
89 74 99 -10 10 -31 -6 -100 -75 l-87 -87 -85 87 c-67 69 -86 84 -95 73z"/>
        <path fill="#2a4d9c" d="M10492 3398 c-9 -11 6 -31 73 -98 l85 -85 -86 -86 c-68 -68 -82 -88
-72 -97 11 -9 31 6 95 69 45 43 86 79 90 79 4 0 45 -37 90 -82 65 -65 85 -80
95 -70 10 10 -5 30 -70 95 -45 45 -82 86 -82 90 0 4 36 45 79 90 63 64 78 84
69 95 -9 10 -29 -4 -97 -72 l-86 -86 -86 86 c-69 69 -88 83 -97 72z"/>
        <path fill="#2a4d9c" d="M24950 3195 c0 -26 29 -59 194 -224 183 -183 194 -192 197 -165 4 26
-16 49 -193 224 -183 179 -198 192 -198 165z"/>
        <path fill="#2a4d9c" d="M18515 3159 c-98 -100 -234 -181 -362 -214 -69 -18 -102 -35 -69 -35
61 0 211 57 299 114 87 55 210 176 179 176 -4 0 -26 -18 -47 -41z"/>
        <path fill="#f5c21b" d="M14401 2426 l-484 -484 -51 20 c-298 119 -559 165 -881 154 -214 -7
-228 -8 -340 -29 -396 -76 -764 -269 -1062 -558 -83 -80 -229 -252 -280 -331
-15 -24 -30 -45 -33 -48 -28 -27 -171 -324 -209 -434 -65 -186 -107 -400 -118
-603 l-6 -113 59 0 60 0 11 153 c7 83 23 204 37 267 25 117 90 327 107 344 5
6 9 18 9 29 0 11 4 15 12 11 7 -4 8 -3 4 5 -12 19 125 266 207 373 105 137
243 284 349 372 138 114 369 249 540 317 354 139 755 174 1131 98 105 -21 335
-93 351 -109 7 -7 -31 -52 -112 -133 l-123 -123 21 -19 c21 -19 22 -18 154
114 l133 133 74 -37 c306 -154 585 -406 772 -695 193 -299 298 -623 323 -997
l7 -103 53 0 54 0 0 38 c0 156 -47 440 -101 610 -167 525 -550 983 -1033 1233
l-66 34 477 477 c478 478 478 478 458 498 -20 20 -20 20 -504 -464z"/>
        <path fill="#2a4d9c" d="M10490 2705 c-7 -8 -10 -19 -6 -23 3 -4 41 -42 83 -84 l78 -77 -83
-83 c-83 -84 -95 -104 -66 -115 12 -4 41 19 99 79 l83 86 83 -84 c46 -46 88
-83 94 -81 25 9 5 43 -68 117 l-79 79 82 82 c74 76 95 114 62 114 -6 0 -49
-37 -95 -82 l-82 -82 -52 52 c-113 115 -119 119 -133 102z"/>
        <path fill="#2a4d9c" d="M9794 2699 c-4 -6 30 -47 77 -95 l84 -84 -84 -84 c-74 -75 -92 -106
-60 -106 5 0 45 37 89 83 l80 82 84 -87 c46 -49 89 -88 95 -88 7 0 14 7 18 17
5 12 -18 39 -83 99 l-89 83 87 85 c73 72 84 87 72 97 -13 10 -29 -2 -100 -72
l-84 -84 -83 83 c-45 45 -85 82 -89 82 -4 0 -10 -5 -14 -11z"/>
        <path fill="#2a4d9c" d="M28202 2698 c-9 -11 5 -30 68 -93 44 -44 80 -84 80 -90 0 -5 -37 -47
-82 -92 -65 -65 -80 -85 -70 -95 10 -10 31 6 100 75 l87 87 85 -85 c66 -67 87
-82 98 -73 11 9 -3 28 -72 97 l-86 86 85 85 c67 66 82 87 73 98 -9 11 -28 -3
-97 -72 l-86 -86 -86 86 c-69 69 -88 83 -97 72z"/>
        <path fill="#2a4d9c" d="M28892 2698 c-9 -11 6 -32 73 -98 l85 -85 -86 -86 c-69 -69 -83 -88
-72 -97 11 -9 32 6 98 73 l85 85 87 -87 c69 -69 90 -85 100 -75 10 10 -5 30
-70 95 -45 45 -82 87 -82 92 0 5 36 46 81 91 65 65 78 83 66 92 -10 9 -31 -6
-97 -73 l-85 -85 -86 86 c-69 69 -88 83 -97 72z"/>
        <path fill="#2a4d9c" d="M25600 2545 c0 -27 146 -176 1258 -1288 1116 -1116 1262 -1258 1285
-1255 24 3 -108 138 -1258 1288 -1149 1149 -1285 1282 -1285 1255z"/>
        <path fill="#2a4d9c" d="M3097 1893 c-4 -71 -10 -217 -13 -326 -4 -109 -10 -199 -13 -201 -3
-2 -179 -9 -391 -16 -212 -7 -386 -13 -387 -14 -1 -1 -7 -174 -14 -386 -6
-212 -15 -388 -18 -392 -3 -4 -161 -12 -351 -18 -190 -6 -364 -13 -387 -16
l-41 -5 -6 -122 c-19 -404 -19 -397 2 -397 17 0 20 10 26 92 3 50 6 130 6 177
0 47 3 116 6 152 l7 65 386 13 c212 7 388 14 390 17 2 2 11 178 18 391 8 213
15 388 16 389 1 1 178 8 392 15 l390 14 7 225 c4 124 11 271 14 328 l6 102
108 0 c60 0 111 -3 113 -7 4 -9 -23 -842 -28 -859 -2 -7 -132 -15 -392 -23
-213 -8 -389 -14 -390 -15 -1 -1 -8 -176 -15 -388 -8 -213 -16 -389 -19 -392
-2 -3 -174 -10 -382 -17 -207 -7 -381 -15 -387 -19 -5 -3 -13 -63 -16 -133 -7
-125 -7 -127 14 -127 20 0 22 5 22 69 0 37 3 88 6 113 l6 45 387 12 c212 7
388 15 390 16 1 2 9 178 17 391 8 213 15 389 17 390 1 1 169 8 372 14 204 6
379 13 390 15 20 4 21 15 37 472 9 257 14 471 11 476 -2 4 -71 7 -152 7 l-148
0 -6 -127z"/>
        <path fill="#2a4d9c" d="M28194 1999 c-4 -6 30 -47 77 -95 l84 -84 -85 -85 c-67 -67 -82 -87
-72 -97 10 -10 30 5 97 72 l85 85 84 -84 c67 -67 87 -81 101 -74 14 8 4 23
-69 99 l-85 89 86 87 c72 72 84 88 69 94 -13 5 -38 -13 -100 -75 l-82 -82 -82
81 c-82 81 -95 89 -108 69z"/>
        <path fill="#2a4d9c" d="M28886 2003 c-3 -4 33 -46 81 -95 l87 -88 -87 -86 c-76 -76 -95 -104
-68 -104 4 0 44 36 90 80 45 44 86 80 89 80 4 0 44 -37 89 -82 65 -65 85 -80
95 -70 10 10 -6 31 -74 100 l-86 87 84 83 c73 73 92 102 66 102 -4 0 -45 -37
-90 -82 l-83 -82 -82 82 c-80 79 -96 90 -111 75z"/>
        <path fill="#2a4d9c" d="M8794 1983 c-25 -3 -186 -160 -912 -886 -752 -753 -883 -887 -888
-917 l-7 -35 33 30 c56 52 1810 1807 1810 1811 0 2 -1 3 -2 2 -2 0 -17 -3 -34
-5z"/>
        <path fill="#2a4d9c" d="M8360 975 c-907 -907 -973 -975 -942 -975 29 0 112 80 985 953 523
524 961 963 971 975 19 22 19 22 -10 22 -25 0 -158 -129 -1004 -975z"/>
        <path fill="#2a4d9c" d="M9704 1718 c-49 -50 -452 -455 -896 -899 -445 -445 -808 -811 -808
-814 0 -4 13 -5 29 -3 24 2 194 167 920 891 490 489 891 892 891 897 0 8 -24
20 -39 20 -4 0 -48 -41 -97 -92z"/>
        <path fill="#2a4d9c" d="M7875 1664 c-140 -92 -535 -503 -600 -624 -4 -8 146 138 334 325 187
187 341 341 341 342 0 6 -7 2 -75 -43z"/>
        <path fill="#2a4d9c" d="M9381 790 c-677 -683 -779 -790 -754 -789 24 0 150 121 808 773 684
680 778 776 766 790 -7 9 -19 16 -25 16 -7 0 -364 -355 -795 -790z"/>
        <path fill="#2a4d9c" d="M28194 1309 c-4 -6 29 -46 75 -93 44 -45 81 -86 81 -91 0 -6 -36 -45
-80 -89 -70 -69 -87 -96 -62 -96 4 0 45 36 91 81 l84 80 86 -85 c69 -68 89
-84 99 -74 10 10 -6 30 -74 99 l-86 87 81 82 c44 45 81 86 81 91 0 26 -25 9
-96 -61 -43 -44 -84 -80 -89 -80 -6 0 -46 36 -90 80 -44 44 -83 80 -87 80 -4
0 -10 -5 -14 -11z"/>
        <path fill="#2a4d9c" d="M28892 1307 c-9 -10 7 -31 73 -97 l85 -85 -86 -86 c-69 -69 -83 -88
-72 -97 11 -9 32 6 98 73 l85 85 86 -86 c76 -75 87 -83 99 -69 11 14 2 26 -68
94 -45 43 -82 82 -82 87 0 5 37 46 82 91 65 65 80 85 70 95 -10 10 -30 -5 -95
-70 -45 -45 -85 -82 -88 -82 -3 0 -32 26 -65 58 -107 102 -110 104 -122 89z"/>
        <path fill="#2a4d9c" d="M9837 648 c-565 -570 -633 -643 -610 -646 22 -3 60 31 264 233 162
162 242 235 251 229 7 -4 9 -3 5 1 -4 5 167 184 380 397 328 328 386 391 377
405 -6 9 -15 18 -21 20 -6 2 -297 -285 -646 -639z"/>
        <path fill="#2a4d9c" d="M10315 528 c-220 -222 -427 -431 -460 -466 l-59 -62 33 0 c30 0 71
38 476 441 420 417 443 442 433 465 -6 13 -14 24 -17 24 -3 0 -186 -181 -406
-402z"/>
        <path fill="#2a4d9c" d="M10643 256 c-134 -133 -243 -245 -243 -249 0 -4 15 -7 33 -7 31 0 55
21 253 220 217 218 236 243 206 272 -4 4 -116 -102 -249 -236z"/>
    </g>
</svg>
