<svg id="earn-money" xmlns="http://www.w3.org/2000/svg" width="26.605" height="26.335" viewBox="0 0 26.605 26.335">
    <path id="Path_195" data-name="Path 195"
          d="M378.5,315.723h-6.476v9.928H378.5a.8.8,0,0,0,.8-.8V316.52A.8.8,0,0,0,378.5,315.723Zm0,0"
          transform="translate(-352.692 -299.317)" fill="#fe9431"/>
    <path id="Path_196" data-name="Path 196" d="M.8,362.508a.8.8,0,0,0-.8.8v5.9a.8.8,0,0,0,.8.8H7.353v-7.5Zm0,0"
          transform="translate(0 -343.671)" fill="#fe9431"/>
    <path id="Path_197" data-name="Path 197"
          d="M180.988,235.957a.8.8,0,0,0-.8-.8h-7.274a.8.8,0,0,0-.718.452v13.663h8.789Zm0,0"
          transform="translate(-163.251 -222.94)" fill="#fe9431"/>
    <path id="Path_198" data-name="Path 198"
          d="M216.686,7.218h-1.358a.8.8,0,0,0,0,1.595h.56v.48a.8.8,0,1,0,1.595,0V8.65a2.288,2.288,0,0,0,1.358-2.12,2.224,2.224,0,0,0-2.155-2.282.635.635,0,0,1-.56-.688.635.635,0,0,1,.56-.688h1.358a.8.8,0,0,0,0-1.595h-.56V.8a.8.8,0,1,0-1.595,0v.643a2.287,2.287,0,0,0-1.358,2.12,2.224,2.224,0,0,0,2.155,2.282.635.635,0,0,1,.56.688A.634.634,0,0,1,216.686,7.218Zm0,0"
          transform="translate(-203.383)" fill="#fe9431"/>
</svg>
