<svg xmlns="http://www.w3.org/2000/svg" width="35" height="35" viewBox="0 0 35 35">
    <path id="checked_4_" data-name="checked (4)"
          d="M17.5,0A17.5,17.5,0,1,0,35,17.5,17.45,17.45,0,0,0,17.5,0ZM27.6,12.011h0l-12.727,13.2a.722.722,0,0,1-.557.239.619.619,0,0,1-.557-.239l-6.2-6.682L7.4,18.375a.769.769,0,0,1,0-1.114l1.114-1.114a.769.769,0,0,1,1.114,0l.08.08L14.08,20.92a.384.384,0,0,0,.557,0L25.3,9.864h.08a.769.769,0,0,1,1.114,0L27.6,10.977a.678.678,0,0,1,0,1.034Z"
          transform="translate(0)" fill="#fe9431"/>
</svg>
