<svg id="copy" xmlns="http://www.w3.org/2000/svg" width="28.3" height="30.874" viewBox="0 0 28.3 30.874">
    <path id="Path_4119" data-name="Path 4119"
          d="M19.617,106.668H3.538A3.541,3.541,0,0,0,0,110.206v17.366a3.54,3.54,0,0,0,3.538,3.537h.643a.965.965,0,0,0,0-1.93H3.538a1.61,1.61,0,0,1-1.608-1.608V110.206A1.61,1.61,0,0,1,3.538,108.6h16.08a1.61,1.61,0,0,1,1.608,1.608v.643a.965.965,0,0,0,1.93,0v-.643A3.541,3.541,0,0,0,19.617,106.668Zm0,0"
          transform="translate(0 -106.668)" fill="#2f2cd8"/>
    <path id="Path_4120" data-name="Path 4120"
          d="M145.045,0H131.538A3.541,3.541,0,0,0,128,3.538v16.08a3.541,3.541,0,0,0,3.538,3.538h13.507a3.54,3.54,0,0,0,3.537-3.538V3.538A3.54,3.54,0,0,0,145.045,0ZM131.538,21.226a1.61,1.61,0,0,1-1.608-1.608V3.538a1.61,1.61,0,0,1,1.608-1.608h13.507a1.61,1.61,0,0,1,1.608,1.608v16.08a1.61,1.61,0,0,1-1.608,1.608Zm0,0"
          transform="translate(-120.282 7.718)" fill="#2f2cd8"/>
</svg>
