<svg xmlns="http://www.w3.org/2000/svg" width="39.541" height="39.541" viewBox="0 0 39.541 39.541">
    <path id="facebook_1_" data-name="facebook (1)"
          d="M34.214,0H5.33A5.328,5.328,0,0,0,0,5.328V34.212A5.328,5.328,0,0,0,5.33,39.541H19.576l.024-14.13H15.929a.866.866,0,0,1-.866-.863l-.018-4.555a.866.866,0,0,1,.866-.869h3.664v-4.4c0-5.107,3.119-7.888,7.675-7.888h3.738a.866.866,0,0,1,.866.866v3.84a.866.866,0,0,1-.866.866H28.7c-2.478,0-2.957,1.177-2.957,2.905v3.81h5.444a.866.866,0,0,1,.86.968l-.54,4.555a.866.866,0,0,1-.86.764h-4.88l-.024,14.13h8.476a5.328,5.328,0,0,0,5.328-5.328V5.328A5.328,5.328,0,0,0,34.214,0Z"
          transform="translate(-0.002)" fill="#3066de"/>
</svg>
