<svg xmlns="http://www.w3.org/2000/svg" width="58.009" height="58.009" viewBox="0 0 58.009 58.009">
    <g id="search_4_" data-name="search (4)" transform="translate(0 0)">
        <path id="Path_4142" data-name="Path 4142"
              d="M12.856,157.658,10.837,165.2l-7.38.156a29.055,29.055,0,0,1-.214-27.084h0l6.57,1.2L12.693,146a17.31,17.31,0,0,0,.163,11.654Z"
              transform="translate(0 -122.602)" fill="#fbbb00"/>
        <path id="Path_4143" data-name="Path 4143"
              d="M289.488,208.176a28.993,28.993,0,0,1-10.339,28.037l0,0-8.276-.422-1.171-7.312a17.286,17.286,0,0,0,7.438-8.827H261.628V208.176h27.86Z"
              transform="translate(-231.986 -184.59)" fill="#518ef8"/>
        <path id="Path_4144" data-name="Path 4144"
              d="M74.213,325.975l0,0A29.014,29.014,0,0,1,30.509,317.1l9.4-7.694a17.25,17.25,0,0,0,24.858,8.832Z"
              transform="translate(-27.052 -274.353)" fill="#28b446"/>
        <path id="Path_4145" data-name="Path 4145"
              d="M72.9,6.677,63.5,14.37A17.248,17.248,0,0,0,38.074,23.4l-9.449-7.736h0A29.01,29.01,0,0,1,72.9,6.677Z"
              transform="translate(-25.381)" fill="#f14336"/>
    </g>
</svg>
