<svg xmlns="http://www.w3.org/2000/svg" width="40.051" height="47.956" viewBox="0 0 40.051 47.956">
    <g id="paypal" transform="translate(-42.193 0.001)">
        <path id="Subtraction_4" data-name="Subtraction 4"
              d="M6184.771,9032.445h-6.342a2.233,2.233,0,0,1-2.2-2.6l6.39-37.977a2.23,2.23,0,0,1,2.2-1.865h17.34a10.376,10.376,0,0,1,10.375,10.378,16.785,16.785,0,0,1-.123,2.012,16.345,16.345,0,0,1-16.211,14.321h-4.84a2.439,2.439,0,0,0-2.332,1.756l-2.05,12.185A2.252,2.252,0,0,1,6184.771,9032.445Z"
              transform="translate(-6134 -8990)" fill="#fff"/>
        <path id="Path_4104" data-name="Path 4104"
              d="M181.564,130.308H186.4a16.337,16.337,0,0,0,16.211-14.322,9.061,9.061,0,0,0-5.272-1.684h-12.63a2.945,2.945,0,0,0-2.9,2.456l-2.575,15.3A2.427,2.427,0,0,1,181.564,130.308Z"
              transform="translate(-124.204 -103.597)" fill="#fff"/>
        <path id="Union_3" data-name="Union 3"
              d="M6178.164,9027.25a1.971,1.971,0,0,1-1.944-2.3l2.893-17.19,2.576-15.3a2.945,2.945,0,0,1,2.9-2.458h12.63a9.113,9.113,0,0,1,9.1,9.107,14.335,14.335,0,0,1-14.334,14.334h-1.459a3.354,3.354,0,0,0-3.308,2.8l-1.575,9.368a1.972,1.972,0,0,1-1.941,1.643Z"
              transform="translate(-6124.084 -8979.295)" fill="#dcdff7" opacity="0.6"/>
    </g>
</svg>
