<svg xmlns:xlink="http://www.w3.org/1999/xlink" xmlns="http://www.w3.org/2000/svg" width="28.949" height="37.342"
     viewBox="0 0 28.949 37.342">
    <defs>
        <linearGradient id="linear-gradient" x1="0.5" x2="0.5" y2="1" gradientUnits="objectBoundingBox">
            <stop offset="0" stop-color="#7bf8c5"/>
            <stop offset="1" stop-color="#46dea2"/>
        </linearGradient>
    </defs>
    <g id="star_3_" data-name="star (3)" transform="translate(-3 -2)">
        <g id="Group_92" data-name="Group 92" transform="translate(3 2)">
            <path id="Path_187" data-name="Path 187"
                  d="M104.328,9.488a2.281,2.281,0,0,0-1.891-1.45l-7.162-.947-3.2-5.9h0a2.452,2.452,0,0,0-4.2,0l-3.2,5.9L77.5,8.037a2.281,2.281,0,0,0-1.892,1.45,1.988,1.988,0,0,0,.593,2.185l5.183,4.595-1.224,6.488A2.034,2.034,0,0,0,81.1,24.84,2.524,2.524,0,0,0,83.564,25l5.2-2.487v6.827H83.66a2.782,2.782,0,0,0-2.9,2.638v3.173H79.173a1.1,1.1,0,1,0,0,2.19h21.595a1.1,1.1,0,1,0,0-2.19H99.18V31.979a2.782,2.782,0,0,0-2.9-2.638H91.174V22.514L96.376,25a2.533,2.533,0,0,0,1.093.247,2.5,2.5,0,0,0,1.375-.409,2.034,2.034,0,0,0,.932-2.084l-1.224-6.488,5.183-4.595A1.988,1.988,0,0,0,104.328,9.488ZM96.28,31.531a.473.473,0,0,1,.493.448v3.173H83.168V31.979a.473.473,0,0,1,.493-.448H96.28Zm.568-16.81a2.015,2.015,0,0,0-.674,1.886l1.207,6.4-6.32-3.022a2.55,2.55,0,0,0-2.181,0l-6.32,3.022,1.207-6.4a2.015,2.015,0,0,0-.674-1.886L77.98,10.188l7.066-.934A2.339,2.339,0,0,0,86.81,8.088l3.16-5.824,3.16,5.824a2.339,2.339,0,0,0,1.764,1.166l7.066.934Z"
                  transform="translate(-75.496)" fill="url(#linear-gradient)"/>
        </g>
    </g>
</svg>
