<svg xmlns:xlink="http://www.w3.org/1999/xlink" xmlns="http://www.w3.org/2000/svg" width="97.013" height="107.69"
     viewBox="0 0 97.013 107.69">
    <defs>
        <linearGradient id="linear-gradient" x1="0.5" x2="0.5" y2="1" gradientUnits="objectBoundingBox">
            <stop offset="0" stop-color="#f5c56b"/>
            <stop offset="1" stop-color="#ff8f2b"/>
        </linearGradient>
        <linearGradient id="linear-gradient-3" x1="0.5" x2="0.5" y2="1" gradientUnits="objectBoundingBox">
            <stop offset="0" stop-color="#2f2cd8"/>
            <stop offset="1" stop-color="#8481f5"/>
        </linearGradient>
    </defs>
    <g id="Group_671" data-name="Group 671" transform="translate(-102.599 -2547.143)">
        <path id="Path_4514" data-name="Path 4514"
              d="M.006,10.248C.246.938,8.389-3.413,18.023,3.137s7.954,17.959-1.4,21.634S-.235,19.557.006,10.248Z"
              transform="matrix(0.292, 0.956, -0.956, 0.292, 171.099, 2547.143)" fill="#f4f4fd"/>
        <path id="Path_4513" data-name="Path 4513"
              d="M.006,10.248C.246.938,8.389-3.413,18.023,3.137s7.954,17.959-1.4,21.634S-.235,19.557.006,10.248Z"
              transform="matrix(0.292, 0.956, -0.956, 0.292, 127.099, 2565.143)" fill="#f4f4fd"/>
        <path id="Path_4512" data-name="Path 4512"
              d="M.012,31.43C.536,2.876,18.268-10.469,39.247,9.621S56.569,64.7,36.208,75.972-.512,59.984.012,31.43Z"
              transform="matrix(0.292, 0.956, -0.956, 0.292, 184.019, 2580.859)" fill="#f4f4fd"/>
        <g id="Group_670" data-name="Group 670" transform="translate(-397.837 108.929) rotate(-11)">
            <g id="Group_650" data-name="Group 650" transform="translate(26.604 2515.071)">
                <path id="Path_4464" data-name="Path 4464"
                      d="M39.667,30.539c-.619-.655-2.018-2.148-2.7-2.849-4.736-4.9-10.642-11-10.642-17.845a3.506,3.506,0,0,1,6.993-.363c.011.117.023.246.023.363h2.339a3.515,3.515,0,0,0-.035-.5,5.84,5.84,0,0,0-11.659.5c0,11.614,13.9,20.291,16.959,26.239h1.393Z"
                      transform="translate(-23.99 -3.998)" fill="url(#linear-gradient)"/>
                <path id="Path_4465" data-name="Path 4465"
                      d="M139.964,223.42l.582,1.826A4.919,4.919,0,0,0,139.964,223.42Z"
                      transform="translate(-123.005 -191.334)" fill="#f6bb42"/>
            </g>
            <g id="Group_652" data-name="Group 652" transform="translate(76.077 2515.071)">
                <path id="Path_4467" data-name="Path 4467"
                      d="M364.984,30.54c.62-.655,2.019-2.148,2.7-2.849,4.735-4.9,10.641-11,10.641-17.845a3.506,3.506,0,0,0-6.993-.363c-.011.117-.023.246-.023.363h-2.339a3.6,3.6,0,0,1,.034-.5,5.84,5.84,0,0,1,11.66.5c0,11.614-13.9,20.291-16.959,26.239h-1.393Z"
                      transform="translate(-362.309 -3.999)" fill="url(#linear-gradient)"/>
                <path id="Path_4468" data-name="Path 4468"
                      d="M368.437,223.42l-.582,1.826A4.912,4.912,0,0,1,368.437,223.42Z"
                      transform="translate(-367.044 -191.334)" fill="#f6bb42"/>
            </g>
            <path id="Path_4469" data-name="Path 4469"
                  d="M193.66,387.055H167.933v-15.2H193.66v15.2Zm-19.88-3.508h14.033a1.173,1.173,0,0,1,1.169-1.169V377.7a1.173,1.173,0,0,1-1.169-1.169H173.78a1.173,1.173,0,0,1-1.169,1.169v4.677A1.173,1.173,0,0,1,173.78,383.547Z"
                  transform="translate(-120.28 2197.01)" fill="url(#linear-gradient-3)"/>
            <path id="Path_4472" data-name="Path 4472"
                  d="M201.09,403.84h14.033a1.173,1.173,0,0,0,1.169,1.169v4.678a1.173,1.173,0,0,0-1.169,1.169H201.09a1.173,1.173,0,0,0-1.169-1.169v-4.678A1.173,1.173,0,0,0,201.09,403.84Z"
                  transform="translate(-147.591 2169.7)" fill="#fff"/>
            <path id="Path_4473" data-name="Path 4473"
                  d="M214.933,296.534h.012c.678-.176,1.345-.363,1.976-.573l.35,1.053a11.949,11.949,0,0,0,4.678,8.875v1.169H207.917v-1.169a11.95,11.95,0,0,0,4.678-8.875l.351-1.053C213.589,296.171,214.244,296.358,214.933,296.534Z"
                  transform="translate(-154.417 2261.804)" fill="url(#linear-gradient-3)"/>
            <path id="Union_4" data-name="Union 4"
                  d="M21.106,40.929c-.69-.176-1.345-.364-1.988-.574C9.785,37.316,4.968,30.487,2.512,23.19.092,16.009-.049,8.4.009,3.532.033,2.082.068.878.068,0H42.154c0,.877.036,2.081.06,3.531.069,6.221-.187,16.956-5.112,25.493A24.321,24.321,0,0,1,23.093,40.356c-.632.21-1.3.4-1.976.574Zm5.25-15.342-5.227-2.749h0ZM15.9,25.587Zm-3.239-9.94L16.9,19.763Zm5.847-.854,2.619-5.3h0Z"
                  transform="translate(39.411 2517.409)" fill="url(#linear-gradient-3)"/>
            <g id="Group_657" data-name="Group 657" transform="translate(39.411 2517.41)" opacity="0.5">
                <path id="Path_4478" data-name="Path 4478"
                      d="M134.2,60.347c-9.332-3.04-14.15-9.87-16.606-17.166-2.42-7.18-2.561-14.793-2.5-19.658.023-1.45.058-2.655.058-3.531h-3.508c0,.877-.035,2.081-.058,3.531-.059,4.865.082,12.477,2.5,19.658,2.456,7.3,7.274,14.126,16.606,17.166.643.21,1.3.4,1.988.573h.012q.9-.233,1.743-.506C134.357,60.391,134.275,60.372,134.2,60.347Z"
                      transform="translate(-111.573 -19.992)" fill="#fff"/>
            </g>
            <g id="Group_660" data-name="Group 660" transform="translate(53.5 2558.809)" opacity="0.5">
                <path id="Path_4481" data-name="Path 4481"
                      d="M212.948,303.225c-.119-.039-.23-.086-.348-.125l0,.009a11.95,11.95,0,0,1-4.677,8.875h1.169a11.946,11.946,0,0,0,4.66-8.528C213.484,303.378,213.206,303.31,212.948,303.225Z"
                      transform="translate(-207.919 -303.1)" fill="#fff"/>
            </g>
            <g id="Group_662" data-name="Group 662" transform="translate(47.652 2582.896)" opacity="0.2">
                <rect id="Rectangle_480" data-name="Rectangle 480" width="25.726" height="1.169"/>
            </g>
            <g id="Group_663" data-name="Group 663" transform="translate(47.652 2568.862)" opacity="0.2">
                <rect id="Rectangle_481" data-name="Rectangle 481" width="1.169" height="14.032" fill="#fff"/>
            </g>
            <g id="Group_664" data-name="Group 664" transform="translate(45.314 2584.064)" opacity="0.2">
                <rect id="Rectangle_482" data-name="Rectangle 482" width="1.169" height="4.677" fill="#fff"/>
            </g>
            <g id="Group_666" data-name="Group 666" transform="translate(72.21 2568.862)" opacity="0.2">
                <rect id="Rectangle_484" data-name="Rectangle 484" width="1.169" height="14.032"/>
            </g>
            <g id="Group_668" data-name="Group 668" transform="translate(52.33 2573.54)" opacity="0.5">
                <path id="Path_4483" data-name="Path 4483"
                      d="M199.921,405.009v4.678a1.173,1.173,0,0,1,1.169,1.169V403.84A1.173,1.173,0,0,1,199.921,405.009Z"
                      transform="translate(-199.921 -403.84)" fill="#fff"/>
            </g>
            <path id="Path_4485" data-name="Path 4485"
                  d="M252.566,58.091a.585.585,0,0,1-.146-1.151c.665-.171,1.319-.355,1.937-.562A23.828,23.828,0,0,0,268.046,45.31c4.674-8.1,5.11-18.26,5.033-25.194l-.03-1.51c-.016-.792-.03-1.475-.03-2.029a.585.585,0,1,1,1.169,0c0,.547.014,1.222.03,2l.03,1.517c.08,7.075-.372,17.441-5.189,25.795a24.964,24.964,0,0,1-14.335,11.6c-.639.214-1.319.4-2.011.584A.6.6,0,0,1,252.566,58.091Z"
                  transform="translate(-192.039 2500.832)" fill="#121158"/>
            <path id="Path_4486" data-name="Path 4486"
                  d="M129.28,58.091a.723.723,0,0,1-.156-.018c-.7-.178-1.37-.37-2.026-.585-8.254-2.688-13.967-8.588-16.977-17.535-2.4-7.117-2.595-14.738-2.533-19.851l.029-1.5c.016-.791.03-1.471.03-2.022a.585.585,0,1,1,1.169,0c0,.557-.014,1.246-.03,2.046l-.028,1.5c-.061,5.025.129,12.513,2.471,19.461,2.887,8.577,8.348,14.228,16.233,16.8.627.206,1.265.388,1.936.558a.59.59,0,0,1,.461.571A.579.579,0,0,1,129.28,58.091Z"
                  transform="translate(-68.752 2500.832)" fill="#121158"/>
            <path id="Path_4487" data-name="Path 4487"
                  d="M150.846,17.162H108.784a.585.585,0,1,1,0-1.169h42.063a.585.585,0,0,1,0,1.169Z"
                  transform="translate(-69.281 2500.832)" fill="#121158"/>
            <path id="Path_4502" data-name="Path 4502"
                  d="M273.156,309.208a.587.587,0,0,1-.351-.117,12.443,12.443,0,0,1-4.912-9.344.585.585,0,0,1,.583-.585h0a.586.586,0,0,1,.585.584,11.462,11.462,0,0,0,4.443,8.408.585.585,0,0,1-.351,1.053Z"
                  transform="translate(-205.624 2259.07)" fill="#121158"/>
            <path id="Path_4503" data-name="Path 4503"
                  d="M204.5,309.207a.585.585,0,0,1-.351-1.053,11.406,11.406,0,0,0,4.444-8.407.585.585,0,1,1,1.169,0,12.442,12.442,0,0,1-4.912,9.344A.587.587,0,0,1,204.5,309.207Z"
                  transform="translate(-151.003 2259.071)" fill="#121158"/>
            <path id="Path_4507" data-name="Path 4507"
                  d="M229.852,417.006H220.5a.585.585,0,1,1,0-1.169h9.355a.585.585,0,0,1,0,1.169Z"
                  transform="translate(-164.658 2159.458)" fill="#d0d0e6"/>
            <path id="Path_4508" data-name="Path 4508"
                  d="M241.169,433h-4.677a.585.585,0,0,1,0-1.169h4.677a.585.585,0,1,1,0,1.169Z"
                  transform="translate(-178.314 2145.803)" fill="#d0d0e6"/>
            <path id="Path_4111" data-name="Path 4111"
                  d="M.931.054A2.379,2.379,0,0,1,1.555,0c6.4.008,12.81-.007,19.214.008a1.725,1.725,0,0,1,1.724,1.978c-.416,2.269-.855,4.534-1.275,6.8a2.721,2.721,0,0,1-2.679,2.388q-3.773,0-7.545,0a1.386,1.386,0,0,1-1.216-.53,1.2,1.2,0,0,1,.995-1.879c1.519-.009,3.037,0,4.556,0a1,1,0,0,0-.006-2.005c-3.145,0-6.288,0-9.432,0a1.242,1.242,0,0,1-1.2-.775A1.208,1.208,0,0,1,5.882,4.37q5,0,10,0A1.023,1.023,0,0,0,16.737,4,5.576,5.576,0,0,0,16.751,2.8a1,1,0,0,0-.867-.394q-7.276.006-14.554,0a1.25,1.25,0,0,1-1.3-.944A1.217,1.217,0,0,1,.931.054Z"
                  transform="translate(47.292 2526.959)" fill="#fff"/>
            <g id="Group_669" data-name="Group 669" transform="translate(37.999 2583.738)">
                <path id="Path_4509" data-name="Path 4509"
                      d="M.456,5.446C.2,5.446,0,5.353,0,5.237V.209C0,.094.2,0,.456,0S.912.094.912.209V5.237C.912,5.353.708,5.446.456,5.446Z"
                      transform="translate(0 0)" fill="#7272a8"/>
                <path id="Path_4510" data-name="Path 4510"
                      d="M.456,5.446C.2,5.446,0,5.353,0,5.237V.209C0,.094.2,0,.456,0S.912.094.912.209V5.237C.912,5.353.708,5.446.456,5.446Z"
                      transform="translate(43.117 0)" fill="#7272a8"/>
                <path id="Path_4511" data-name="Path 4511"
                      d="M42.806.912H1.223C.547.912,0,.708,0,.456S.547,0,1.223,0H42.806c.676,0,1.223.2,1.223.456S43.483.912,42.806.912Z"
                      transform="translate(0 0)" fill="#7272a8"/>
            </g>
        </g>
    </g>
</svg>
