<svg xmlns:xlink="http://www.w3.org/1999/xlink" xmlns="http://www.w3.org/2000/svg" width="132.899" height="122.583"
     viewBox="0 0 132.899 122.583">
    <defs>
        <linearGradient id="linear-gradient" x1="0.5" x2="0.5" y2="1" gradientUnits="objectBoundingBox">
            <stop offset="0" stop-color="#f5c56b"/>
            <stop offset="1" stop-color="#ff8f2b"/>
        </linearGradient>
    </defs>
    <g id="Group_547" data-name="Group 547" transform="translate(-174 -839)">
        <path id="Path_4182" data-name="Path 4182"
              d="M-6221.562-8635.605c-.436-20.435-12.043-44.73-47.808-44.176s-43.763,57.788-62.158,63.559-27.249,45.774,30.2,44.37S-6221.126-8615.172-6221.562-8635.605Z"
              transform="translate(6528.454 9533.399)" fill="#f4f4fd"/>
        <path id="Path_4248" data-name="Path 4248"
              d="M271.264,935.227h0s-7.255-14.208-10.089-14.187-32.392,16.441-32.041,17.734,5.088,13.2,10.5,15.026c1.509.509,2.915,2.668,5.335,2.014,15.807-9,12.712-6.769,18.713-11.2,8.324-6.143,9.059-6.875,9.059-6.875"
              transform="translate(0 -2)" fill="#8f8df7"/>
        <path id="Path_4143" data-name="Path 4143"
              d="M529.19,536.182A40.036,40.036,0,1,0,477.717,583.8l.614,2.465,4.493-1.118,32.573-8.108,4.537-1.129-.62-2.49A39.938,39.938,0,0,0,529.19,536.182Z"
              transform="translate(-375.375 482.658) rotate(-14)" fill="url(#linear-gradient)"/>
        <g id="Group_531" data-name="Group 531" transform="translate(197.842 867.556) rotate(-14)">
            <path id="Path_4144" data-name="Path 4144"
                  d="M574.53,604.144c.994,3.993-1.843,8.135-6.332,9.252s-8.936-1.211-9.931-5.2,1.841-8.134,6.332-9.252S573.536,600.151,574.53,604.144Z"
                  transform="translate(-545.744 -583.362)" fill="#f6bb42"/>
            <path id="Path_4145" data-name="Path 4145"
                  d="M661.381,539.654c-.8,1.322-3.6,1.093-6.268-.512s-4.187-3.976-3.393-5.3,3.6-1.093,6.272.512S662.174,538.332,661.381,539.654Z"
                  transform="translate(-617.419 -532.984)" fill="#f6bb42"/>
            <path id="Path_4146" data-name="Path 4146"
                  d="M728.293,707.334c-1.09-.654-1.23-2.426-.313-3.951s2.547-2.234,3.638-1.58,1.232,2.426.316,3.958S729.383,707.988,728.293,707.334Z"
                  transform="translate(-675.613 -662.292)" fill="#f6bb42"/>
            <path id="Path_4147" data-name="Path 4147"
                  d="M510.663,710.129a2.793,2.793,0,1,1-3.385-2.036A2.793,2.793,0,0,1,510.663,710.129Z"
                  transform="translate(-505.158 -667.241)" fill="#f6bb42"/>
        </g>
        <g id="Group_539" data-name="Group 539" transform="translate(184.07 865.143) rotate(-14)" opacity="0.5">
            <path id="Path_4157" data-name="Path 4157"
                  d="M456.911,556.338a40.007,40.007,0,0,1,26.5-47.709c-.915.162-1.83.31-2.744.538a40,40,0,0,0-2.953,76.794S462.421,578.473,456.911,556.338Z"
                  transform="translate(-450.295 -508.629)" fill="#fff"/>
        </g>
        <g id="Group_541" data-name="Group 541" transform="translate(213.506 879.44) rotate(-14)" opacity="0.2">
            <path id="Path_4159" data-name="Path 4159"
                  d="M561.88,607.369c-.856-3.439,1.138-6.976,4.573-8.609a9.323,9.323,0,0,0-1.855.257c-4.491,1.118-7.326,5.259-6.332,9.252s5.439,6.322,9.931,5.2a9.357,9.357,0,0,0,1.759-.643C566.156,613,562.736,610.808,561.88,607.369Z"
                  transform="translate(-558.067 -598.76)"/>
        </g>
        <g id="Group_542" data-name="Group 542" transform="translate(230.922 859.323) rotate(-14)" opacity="0.2">
            <path id="Path_4160" data-name="Path 4160"
                  d="M656.92,538.74c-2.668-1.6-4.186-3.976-3.393-5.3a1.485,1.485,0,0,1,.36-.392,2.319,2.319,0,0,0-2.167.842c-.793,1.322.725,3.7,3.393,5.3,2.359,1.42,4.821,1.758,5.909.9A8.823,8.823,0,0,1,656.92,538.74Z"
                  transform="translate(-651.509 -533.047)"/>
        </g>
        <g id="Group_543" data-name="Group 543" transform="translate(257.568 893.145) rotate(-14)" opacity="0.2">
            <path id="Path_4161" data-name="Path 4161"
                  d="M730.1,706.924c-1.091-.654-1.23-2.426-.313-3.951a4.188,4.188,0,0,1,1.252-1.333,3.226,3.226,0,0,0-3.059,1.783c-.917,1.525-.778,3.3.313,3.951a2.243,2.243,0,0,0,2.389-.248A1.666,1.666,0,0,1,730.1,706.924Z"
                  transform="translate(-727.374 -701.611)"/>
        </g>
        <g id="Group_544" data-name="Group 544" transform="translate(207.707 907.122) rotate(-14)" opacity="0.2">
            <path id="Path_4162" data-name="Path 4162"
                  d="M507.049,711.057a2.787,2.787,0,0,1,1.174-2.994,2.765,2.765,0,0,0-.945.059,2.794,2.794,0,1,0,2.212,5.032A2.787,2.787,0,0,1,507.049,711.057Z"
                  transform="translate(-505.158 -708.047)"/>
        </g>
        <g id="Group_545" data-name="Group 545" transform="translate(236.096 917.251) rotate(-14)" opacity="0.2">
            <path id="Path_4163" data-name="Path 4163"
                  d="M614.739,781.871c-.2-.783.4-1.635,1.385-2.146a4.037,4.037,0,0,0-.931.114c-1.5.372-2.509,1.486-2.261,2.482s1.665,1.508,3.161,1.136a4.021,4.021,0,0,0,.876-.336A2.1,2.1,0,0,1,614.739,781.871Z"
                  transform="translate(-612.895 -779.725)"/>
        </g>
        <path id="Path_4167" data-name="Path 4167"
              d="M404.043,587.125c-4.239,1.055-5.12-.137-5.518-.675-.673-.912-2.724-3.688,11.3-17.492a.931.931,0,0,1,1.307,1.327c-12.723,12.526-11.176,14.961-11.105,15.057s1.934,2.275,17.524-6.133c10.59-5.713,23.916-14.4,37.522-24.463s25.82-20.258,34.384-28.705c12.611-12.44,11.072-14.858,11-14.956s-1.852-2.183-16.568,5.625a.931.931,0,0,1-.873-1.645c16.3-8.648,18.286-5.97,18.937-5.087.672.908,2.717,3.671-11.19,17.388-8.624,8.507-20.908,18.762-34.585,28.877s-27.079,18.85-37.745,24.6C411.437,584.621,406.95,586.4,404.043,587.125Z"
              transform="translate(-217.785 345.458)" fill="#121158"/>
        <path id="Path_4168" data-name="Path 4168"
              d="M692.2,752.166a.939.939,0,0,1-1.137-.676.923.923,0,0,1,.669-1.126l.018,0a.931.931,0,1,1,.45,1.807Z"
              transform="translate(-599.929 345.337) rotate(-14)" fill="#3a3847" opacity="0.213"/>
        <path id="Path_4169" data-name="Path 4169"
              d="M502.322,618.185a.938.938,0,0,1-1.137-.676.923.923,0,0,1,.67-1.126l.018,0a.931.931,0,1,1,.45,1.807Z"
              transform="translate(-433.743 409.821) rotate(-14)" fill="#3a3847" opacity="0.213"/>
        <path id="Path_4170" data-name="Path 4170"
              d="M715.605,614.528a.94.94,0,0,1-1.137-.676.923.923,0,0,1,.67-1.126l.018,0a.931.931,0,1,1,.45,1.807Z"
              transform="translate(-591.808 452.122) rotate(-14)" fill="#3a3847" opacity="0.213"/>
        <path id="Path_4172" data-name="Path 4172"
              d="M609.8,829.469l-30.721,7.647a.931.931,0,0,1-.7-.105l-6.768-4.072a.93.93,0,0,1-.424-.573l-4.5-18.069a.931.931,0,0,1,.679-1.128l41.561-10.345a.93.93,0,0,1,1.128.679l4.5,18.07a.93.93,0,0,1-.106.7l-4.072,6.77A.929.929,0,0,1,609.8,829.469ZM579,835.215l29.972-7.461,3.674-6.109-4.18-16.792-39.754,9.9,4.18,16.792Z"
              transform="translate(-517.093 283.21) rotate(-14)" fill="#121158"/>
        <path id="Path_4173" data-name="Path 4173"
              d="M567.777,833.079a.931.931,0,0,1-.519-1.786l44.275-14.858a.93.93,0,0,1,.593,1.764L567.85,833.057C567.826,833.065,567.8,833.073,567.777,833.079Z"
              transform="translate(-519.589 273.086) rotate(-14)" fill="#121158"/>
        <path id="Path_4174" data-name="Path 4174"
              d="M573.57,856.342a.931.931,0,0,1-.519-1.786L617.325,839.7a.93.93,0,1,1,.593,1.764L573.643,856.32C573.619,856.327,573.594,856.335,573.57,856.342Z"
              transform="translate(-528.217 256.849) rotate(-14)" fill="#121158"/>
        <path id="Path_4175" data-name="Path 4175"
              d="M579.363,879.63a.931.931,0,0,1-.519-1.786l44.275-14.859a.93.93,0,0,1,.593,1.764l-44.275,14.859C579.412,879.616,579.388,879.624,579.363,879.63Z"
              transform="translate(-536.851 240.587) rotate(-14)" fill="#121158"/>
        <path id="Path_4176" data-name="Path 4176"
              d="M650.3,923.162c-7.593,1.89-11.489-1.19-11.652-1.322a.931.931,0,0,1,1.17-1.448c.145.114,3.412,2.61,10.031.962s8.338-5.394,8.407-5.552a.931.931,0,0,1,1.713.73C659.887,916.725,657.889,921.272,650.3,923.162Z"
              transform="translate(-587.285 217.811) rotate(-14)" fill="#7272a8"/>
        <path id="Path_4177" data-name="Path 4177"
              d="M565.676,611.509c-4.981,1.24-9.943-1.4-11.059-5.882s2.029-9.14,7.011-10.38,9.943,1.4,11.059,5.882S570.658,610.269,565.676,611.509Zm-3.6-14.456c-3.986.992-6.522,4.637-5.654,8.123s4.816,5.518,8.8,4.525,6.522-4.637,5.654-8.124S566.063,596.062,562.078,597.053Z"
              transform="translate(-469.393 435.636) rotate(-14)" fill="#121158"/>
        <path id="Path_4178" data-name="Path 4178"
              d="M657.716,538.69a8.387,8.387,0,0,1-5.834-1.379c-3.208-1.928-4.806-4.754-3.713-6.574,1.061-1.762,4.478-1.658,7.551.192,3.206,1.929,4.8,4.756,3.707,6.576A2.676,2.676,0,0,1,657.716,538.69Zm-7.385-7.332a.916.916,0,0,0-.566.338c-.38.634.651,2.563,3.077,4.019a6.656,6.656,0,0,0,4.425,1.168.919.919,0,0,0,.566-.338c.382-.636-.649-2.564-3.071-4.022A6.668,6.668,0,0,0,650.331,531.358Z"
              transform="translate(-526.786 501.699) rotate(-14)" fill="#121158"/>
        <path id="Path_4179" data-name="Path 4179"
              d="M727.2,705.7a2.833,2.833,0,0,1-2.161-.281c-1.554-.935-1.832-3.232-.633-5.23,1.147-1.911,3.421-2.795,4.915-1.9,1.554.934,1.832,3.234.637,5.231A4.655,4.655,0,0,1,727.2,705.7Zm.413-5.882a2.826,2.826,0,0,0-1.61,1.331c-.7,1.159-.563,2.34,0,2.675a1,1,0,0,0,.752.069,2.83,2.83,0,0,0,1.611-1.329c.693-1.158.558-2.341,0-2.676A1,1,0,0,0,727.618,699.822Z"
              transform="translate(-614.495 390.384) rotate(-14)" fill="#121158"/>
        <path id="Path_4180" data-name="Path 4180"
              d="M506.1,711.625a3.725,3.725,0,1,1,2.714-4.515A3.729,3.729,0,0,1,506.1,711.625Zm-1.35-5.423a1.863,1.863,0,1,0,2.257,1.357A1.864,1.864,0,0,0,504.752,706.2Z"
              transform="translate(-450.3 344.433) rotate(-14)" fill="#121158"/>
        <path id="Path_4181" data-name="Path 4181"
              d="M613.566,781.534c-2.027.5-3.91-.292-4.289-1.813s.912-3.105,2.939-3.61,3.911.292,4.289,1.811S615.592,781.03,613.566,781.534Zm-.9-3.616c-1.087.271-1.672.993-1.582,1.353s.929.73,2.032.456,1.674-.986,1.582-1.355S613.752,777.648,612.666,777.918Z"
              transform="translate(-543.786 311.078) rotate(-14)" fill="#121158"/>
        <g id="Group_566" data-name="Group 566" transform="translate(0 1.984)">
            <path id="Path_4244" data-name="Path 4244" d="M293.583,881.176v6" transform="translate(-0.992)" fill="none"
                  stroke="#fe9431" stroke-linecap="round" stroke-width="1"/>
            <path id="Path_4245" data-name="Path 4245" d="M0,0V6" transform="translate(289.592 884.174) rotate(-90)"
                  fill="none" stroke="#fe9431" stroke-linecap="round" stroke-width="1"/>
        </g>
        <g id="Group_568" data-name="Group 568" transform="translate(-112.056 -24.342)">
            <path id="Path_4244-2" data-name="Path 4244" d="M293.583,881.176v5.464" transform="translate(-1.259)"
                  fill="none" stroke="#fe9431" stroke-linecap="round" stroke-width="1"/>
            <path id="Path_4245-2" data-name="Path 4245" d="M0,0V5.464"
                  transform="translate(289.592 883.908) rotate(-90)" fill="none" stroke="#fe9431" stroke-linecap="round"
                  stroke-width="1"/>
        </g>
        <circle id="Ellipse_135" data-name="Ellipse 135" cx="2.5" cy="2.5" r="2.5" transform="translate(210 839)"
                fill="#fcd5b2"/>
        <circle id="Ellipse_137" data-name="Ellipse 137" cx="2" cy="2" r="2" transform="translate(174 894)"
                fill="#fcd5b2"/>
    </g>
</svg>
