<svg xmlns:xlink="http://www.w3.org/1999/xlink" xmlns="http://www.w3.org/2000/svg" width="107.655" height="90.145"
     viewBox="0 0 107.655 90.145">
    <defs>
        <linearGradient id="linear-gradient" x1="0.5" x2="0.5" y2="1" gradientUnits="objectBoundingBox">
            <stop offset="0" stop-color="#2f2cd8"/>
            <stop offset="1" stop-color="#8481f5"/>
        </linearGradient>
        <linearGradient id="linear-gradient-2" x1="0.5" x2="0.5" y2="1" gradientUnits="objectBoundingBox">
            <stop offset="0" stop-color="#f5c56b"/>
            <stop offset="1" stop-color="#ff8f2b"/>
        </linearGradient>
    </defs>
    <g id="Group_618" data-name="Group 618" transform="translate(-108.989 -611.7)">
        <g id="Group_585" data-name="Group 585" transform="translate(118.571 714.981) rotate(-100)">
            <path id="Path_4308" data-name="Path 4308"
                  d="M.02,10.106C.666-1.155,16.881-5.962,35.33,11.538s15.233,47.98-2.672,57.8S-.627,21.368.02,10.106Z"
                  transform="matrix(-0.829, 0.559, -0.559, -0.829, 94.575, 58.408)" fill="#f4f4fd"/>
            <g id="Group_584" data-name="Group 584" transform="translate(0 10.162)">
                <path id="Union_1" data-name="Union 1"
                      d="M2.5,9.715h0a4.949,4.949,0,0,1-.963-.753A5.25,5.25,0,0,1,8.962,1.537a4.991,4.991,0,0,1,.753.963h0A5.241,5.241,0,0,1,2.5,9.715Z"
                      transform="translate(19.206 12.423)" fill="url(#linear-gradient)"/>
                <g id="Group_572" data-name="Group 572" transform="translate(19.206 12.424)" opacity="0.3">
                    <path id="Path_4261" data-name="Path 4261"
                          d="M3.288,3.288A5.243,5.243,0,0,1,9.7,2.517L9.715,2.5a4.977,4.977,0,0,0-.753-.963A5.251,5.251,0,0,0,1.537,8.962a4.977,4.977,0,0,0,.963.752L2.517,9.7A5.243,5.243,0,0,1,3.288,3.288Z"
                          fill="#fff"/>
                </g>
                <path id="Union_3" data-name="Union 3"
                      d="M.587,23.36C-2.495,20.279,7.416,5.376,10.5,2.311A7.875,7.875,0,0,1,21.635,13.448C18.959,16.125,7.378,23.941,2.36,23.942A2.428,2.428,0,0,1,.587,23.36Zm5.206-4.873h0Zm-.25-.083a.353.353,0,0,1-.085-.262A.353.353,0,0,0,5.543,18.4Zm12.38-8.667c-.035.035-.081.078-.137.129.056-.051.1-.095.137-.129a2.676,2.676,0,0,0,.769-1.881A2.676,2.676,0,0,1,17.923,9.737Zm-.36-4.017a2.621,2.621,0,0,0-1.5-.473A2.621,2.621,0,0,1,17.563,5.721Z"
                      transform="translate(0 65.482)" fill="url(#linear-gradient-2)"/>
                <g id="Group_573" data-name="Group 573" transform="translate(1.664 65.516)" opacity="0.3">
                    <path id="Path_4265" data-name="Path 4265"
                          d="M19.971,2.278A7.826,7.826,0,0,0,13.52.051a7.838,7.838,0,0,1,4.7,13.363c-2.5,2.5-12.794,9.5-18.22,10.4,4.518.886,17.156-7.583,19.971-10.4A7.86,7.86,0,0,0,19.971,2.278Z"/>
                </g>
                <g id="Group_574" data-name="Group 574" transform="translate(0 65.516)" opacity="0.5">
                    <path id="Path_4266" data-name="Path 4266"
                          d="M2.338,23.327C-.744,20.245,9.167,5.343,12.25,2.278A7.767,7.767,0,0,1,16.936.052,7.786,7.786,0,0,0,10.5,2.278C7.415,5.343-2.495,20.245.587,23.327a3.209,3.209,0,0,0,2.829.486A2.07,2.07,0,0,1,2.338,23.327Z"
                          fill="#fff"/>
                </g>
                <g id="Group_583" data-name="Group 583" transform="translate(74.801 41.081)">
                    <g id="Group_575" data-name="Group 575" transform="translate(0 0)">
                        <path id="Union_2" data-name="Union 2"
                              d="M0,7.881a7.881,7.881,0,1,1,7.881,7.88A7.869,7.869,0,0,1,0,7.881ZM8.757,5.253a1.751,1.751,0,1,0,3.5,0,1.751,1.751,0,1,1-3.5,0Z"
                              transform="translate(0 0)" fill="url(#linear-gradient)"/>
                    </g>
                    <g id="Group_576" data-name="Group 576" transform="translate(0 0)" opacity="0.5">
                        <path id="Path_4269" data-name="Path 4269"
                              d="M1.751,9.632a7.858,7.858,0,0,1,12.5-6.365A7.865,7.865,0,1,0,3.265,14.242,7.8,7.8,0,0,1,1.751,9.632Z"
                              fill="#fff"/>
                    </g>
                </g>
                <path id="Path_4271" data-name="Path 4271"
                      d="M.946,6.15C7.128-.05,18.283-1.276,20.753,1.194,23.24,3.68,23.24,13.575,15.8,21.018L14.57,19.775,2.172,7.393,0,7.1Q.606,6.493.946,6.15Z"
                      transform="translate(68.841 2.19)" fill="#fcd5b2"/>
                <path id="Path_4274" data-name="Path 4274"
                      d="M8.979,1.549a5.257,5.257,0,1,1-7.443,0A5.253,5.253,0,0,1,8.979,1.549Z"
                      transform="translate(58.398 20.344)" fill="#5d9cec"/>
                <g id="Group_580" data-name="Group 580" transform="translate(58.398 20.344)" opacity="0.5">
                    <path id="Path_4275" data-name="Path 4275"
                          d="M3.288,3.3a5.239,5.239,0,0,1,6.448-.77,5.211,5.211,0,0,0-8.2-.982,5.253,5.253,0,0,0,0,7.426,5.245,5.245,0,0,0,.988.756A5.245,5.245,0,0,1,3.288,3.3Z"
                          fill="#fff"/>
                </g>
                <path id="Path_4276" data-name="Path 4276"
                      d="M8.981,1.538a5.256,5.256,0,1,1-7.443,0A5.252,5.252,0,0,1,8.981,1.538Z"
                      transform="translate(46.017 32.737)" fill="#5d9cec"/>
                <g id="Group_581" data-name="Group 581" transform="translate(45.938 32.805)" opacity="0.5">
                    <path id="Path_4277" data-name="Path 4277"
                          d="M3.288,3.3a5.238,5.238,0,0,1,6.448-.77,5.211,5.211,0,0,0-8.2-.982,5.254,5.254,0,0,0,0,7.426,5.256,5.256,0,0,0,.988.756A5.245,5.245,0,0,1,3.288,3.3Z"
                          fill="#fff"/>
                </g>
                <path id="Path_4280" data-name="Path 4280"
                      d="M13.764,63.149,11.294,60.68l-1.26,1.245s-1.226,1.224-6.182-3.732C-1.1,53.254.139,52.012.139,52.012l1.243-1.228L.917,46.7s-.462.04,2.076-2.485c2.7-2.713,6.5-6.513,10.771-10.77C25.812,21.382,42.466,4.729,47.194,0L48.42,1.243l12.4,12.382,1.226,1.243C58.3,18.615,41.381,35.532,28.615,48.315,24.324,52.59,13.764,63.149,13.764,63.149Z"
                      transform="translate(19.745 10.53)" fill="#8f8df7"/>
                <path id="Path_4282" data-name="Path 4282"
                      d="M5.577,22.168a.845.845,0,0,1-.26-.041.873.873,0,0,1-.6-.677c-.59-3.212-2.249-8.657-4.194-9.673a.884.884,0,0,1-.522-.8.907.907,0,0,1,1.276-.783C3.88,11.5,5.435,16.74,6.09,19.5c10.2-10.952,5.76-17.834,5.56-18.131a.876.876,0,0,1,1.441-1c.245.356,5.857,8.8-6.9,21.538A.871.871,0,0,1,5.577,22.168Z"
                      transform="translate(37.109 55.152)" fill="#7272a8"/>
                <path id="Path_4283" data-name="Path 4283"
                      d="M11.085,14.339a.879.879,0,0,1-.754-.428C9.2,12,3.837,10.392.718,9.824A.875.875,0,0,1,.257,8.343C13.009-4.411,21.456,1.187,21.81,1.431a.876.876,0,0,1-.992,1.444c-.3-.205-7.186-4.619-18.148,5.574,2.685.633,7.715,2.11,9.17,4.569a.872.872,0,0,1-.754,1.32Z"
                      transform="translate(12.074 37.763)" fill="#7272a8"/>
                <path id="Path_4286" data-name="Path 4286"
                      d="M15.744,71.05a.876.876,0,0,1-.619-1.495l4.046-4.047c2.7-2.7,6.514-6.512,10.807-10.788,12.764-12.783,29.68-29.7,33.428-33.447a21.114,21.114,0,0,0,5.957-11.3c.617-3.7-.086-6.375-1-7.29-.587-.587-2.047-.937-3.908-.937h-.01c-4.23,0-10.617,1.849-14.649,5.893l-.949.947c-4.727,4.727-20.435,20.435-32.483,32.5-4.272,4.257-8.072,8.054-10.769,10.77l-4.1,4.08A.875.875,0,0,1,.257,54.7l4.1-4.08c2.693-2.713,6.5-6.513,10.771-10.772C27.173,27.789,42.881,12.081,47.61,7.352l.945-.946C52.964,1.985,59.711,0,64.443,0h.012C66.144,0,68.4.253,69.6,1.45c2.765,2.766,2.988,13.119-4.956,21.062C60.9,26.259,43.98,43.177,31.214,55.959c-4.291,4.275-8.11,8.092-10.805,10.788l-4.046,4.047A.873.873,0,0,1,15.744,71.05Z"
                      transform="translate(18.203 0)" fill="#121158"/>
                <path id="Path_4287" data-name="Path 4287"
                      d="M.875,16.6a.876.876,0,0,1-.619-1.495L15.107.256a.875.875,0,1,1,1.238,1.238L1.495,16.346A.871.871,0,0,1,.875,16.6Z"
                      transform="translate(25.629 47.022)" fill="#121158"/>
                <path id="Path_4288" data-name="Path 4288"
                      d="M5.832,6.707a.873.873,0,0,1-.619-.257L.257,1.495A.875.875,0,0,1,1.495.257L6.451,5.213a.876.876,0,0,1-.619,1.495Z"
                      transform="translate(18.203 54.448)" fill="#121158"/>
                <path id="Path_4289" data-name="Path 4289"
                      d="M5.832,6.707a.873.873,0,0,1-.619-.257L.257,1.495A.875.875,0,0,1,1.495.257L6.451,5.213a.876.876,0,0,1-.619,1.495Z"
                      transform="translate(28.116 64.343)" fill="#121158"/>
                <path id="Path_4306" data-name="Path 4306"
                      d="M13.274,14.133a.873.873,0,0,1-.619-.257L.256,1.495A.875.875,0,0,1,1.495.256l12.4,12.382a.876.876,0,0,1-.619,1.495Z"
                      transform="translate(67.728 7.393)" fill="#121158"/>
                <path id="Path_4307" data-name="Path 4307"
                      d="M10.43,11.824c-1.113,0-3.037-.862-6.322-4.149C1.384,4.963,0,2.846,0,1.385A1.55,1.55,0,0,1,.395.257.875.875,0,0,1,1.753,1.344C1.738,1.553,1.8,2.9,5.344,6.437s4.927,3.615,5.1,3.609a.876.876,0,0,1,1.084,1.361A1.489,1.489,0,0,1,10.43,11.824Z"
                      transform="translate(19.308 58.162)" fill="#121158"/>
            </g>
            <g id="Ellipse_138" data-name="Ellipse 138" transform="translate(55.849 4.197)" fill="none" stroke="#d0d0e6"
               stroke-width="1">
                <circle cx="2.191" cy="2.191" r="2.191" stroke="none"/>
                <circle cx="2.191" cy="2.191" r="1.691" fill="none"/>
            </g>
            <g id="Ellipse_139" data-name="Ellipse 139" transform="translate(41.964 27.717)" fill="none"
               stroke="#d0d0e6" stroke-width="1">
                <circle cx="1.424" cy="1.424" r="1.424" stroke="none"/>
                <circle cx="1.424" cy="1.424" r="0.924" fill="none"/>
            </g>
            <g id="Ellipse_140" data-name="Ellipse 140" transform="translate(77.294 76.334)" fill="none"
               stroke="#d0d0e6" stroke-width="1">
                <circle cx="3.505" cy="3.505" r="3.505" stroke="none"/>
                <circle cx="3.505" cy="3.505" r="3.005" fill="none"/>
            </g>
            <circle id="Ellipse_141" data-name="Ellipse 141" cx="1.205" cy="1.205" r="1.205"
                    transform="translate(93.088 38.369)" fill="#2f2cd8"/>
            <circle id="Ellipse_142" data-name="Ellipse 142" cx="1.205" cy="1.205" r="1.205"
                    transform="translate(27.153 5.073)" fill="#2f2cd8"/>
            <circle id="Ellipse_143" data-name="Ellipse 143" cx="1.205" cy="1.205" r="1.205"
                    transform="translate(58.477 80.646)" fill="#2f2cd8"/>
        </g>
    </g>
</svg>
