<svg xmlns:xlink="http://www.w3.org/1999/xlink" xmlns="http://www.w3.org/2000/svg" width="100.567" height="101.477"
     viewBox="0 0 100.567 101.477">
    <defs>
        <linearGradient id="linear-gradient" x1="0.5" x2="0.5" y2="1" gradientUnits="objectBoundingBox">
            <stop offset="0" stop-color="#f5c56b"/>
            <stop offset="1" stop-color="#ff8f2b"/>
        </linearGradient>
        <linearGradient id="linear-gradient-4" x1="0.5" x2="0.5" y2="1" gradientUnits="objectBoundingBox">
            <stop offset="0" stop-color="#2f2cd8"/>
            <stop offset="1" stop-color="#8481f5"/>
        </linearGradient>
    </defs>
    <g id="Group_619" data-name="Group 619" transform="translate(-106.247 -178.65)">
        <path id="Path_4247" data-name="Path 4247"
              d="M-6242.32-6581.32c-7.177-2.292-23.031-.42-20.347,7.652s25.29,15.073,29.339,7.417S-6235.142-6579.028-6242.32-6581.32Z"
              transform="translate(6430.815 6775.332)" fill="#f4f4fd"/>
        <path id="Path_4246" data-name="Path 4246"
              d="M-6296.557-6520.166c-9.033-21.553-4.933-45.007,24.716-45.007s60.95,57.653,39.479,71.784S-6287.523-6498.613-6296.557-6520.166Z"
              transform="translate(6421.129 6768.695)" fill="#f4f4fd"/>
        <path id="Path_4243" data-name="Path 4243"
              d="M9.563.021a4.8,4.8,0,1,1,.889,9.564C7.811,9.83.331,7.143.01,5.732S6.923.269,9.563.021Z"
              transform="matrix(0.309, 0.951, -0.951, 0.309, 164.013, 178.65)" fill="url(#linear-gradient)"/>
        <g id="Group_565" data-name="Group 565" transform="matrix(0.309, 0.951, -0.951, 0.309, 160.272, 179.866)"
           opacity="0.4">
            <path id="Path_4199" data-name="Path 4199"
                  d="M11.712,4.391C9.07,4.636,1.591,1.949,1.27.539A.78.78,0,0,1,1.426,0C.5.719-.086,1.377.01,1.8c.321,1.411,7.8,4.1,10.442,3.853a4.77,4.77,0,0,0,3.506-2.089A4.76,4.76,0,0,1,11.712,4.391Z"
                  transform="translate(0 0)" fill="#fff"/>
        </g>
        <path id="Path_4194" data-name="Path 4194"
              d="M14.535,19.251A9.038,9.038,0,0,1,3.542,4.9C7.5,1.868,22.114-1.343,24.039.583S18.5,16.214,14.535,19.251Z"
              transform="matrix(0.978, 0.208, -0.208, 0.978, 175.638, 184.951)" fill="url(#linear-gradient)"/>
        <g id="Group_558" data-name="Group 558" transform="matrix(0.978, 0.208, -0.208, 0.978, 175.637, 184.951)"
           opacity="0.4">
            <path id="Path_4196" data-name="Path 4196"
                  d="M5.05,17.574A9.036,9.036,0,0,1,6.727,4.9C9.515,2.765,17.572.548,22.776.092,18.642-.547,7.007,2.244,3.542,4.9A9.01,9.01,0,0,0,10.61,20.937,8.984,8.984,0,0,1,5.05,17.574Z"
                  fill="#fff"/>
        </g>
        <path id="Path_4197" data-name="Path 4197"
              d="M12.1.026a6.074,6.074,0,1,1,1.125,12.1C9.879,12.432.419,9.034.013,7.25S8.756.341,12.1.026Z"
              transform="matrix(0.978, 0.208, -0.208, 0.978, 142.411, 194.688)" fill="url(#linear-gradient)"/>
        <g id="Group_560" data-name="Group 560" transform="matrix(0.978, 0.208, -0.208, 0.978, 141.377, 199.555)"
           opacity="0.4">
            <path id="Path_4199-2" data-name="Path 4199"
                  d="M14.813,5.554C11.472,5.864,2.012,2.465,1.606.681A.987.987,0,0,1,1.8,0C.632.91-.108,1.742.013,2.274.419,4.058,9.879,7.457,13.22,7.147A6.033,6.033,0,0,0,17.655,4.5,6.02,6.02,0,0,1,14.813,5.554Z"
                  fill="#fff"/>
        </g>
        <path id="Path_4200" data-name="Path 4200"
              d="M31.462,23.891l-3.185.1c0-6.466-22.108-4.715-22.108-4.715S4.8,19.1,2.6,18.937L0,18.72,18.72,0,41.507,22.787l-1.969.165C34.853,23.445,31.462,23.891,31.462,23.891Z"
              transform="matrix(0.978, 0.208, -0.208, 0.978, 145.258, 219.618)" fill="url(#linear-gradient-4)"/>
        <g id="Group_561" data-name="Group 561" transform="matrix(0.978, 0.208, -0.208, 0.978, 145.258, 219.618)"
           opacity="0.2">
            <path id="Path_4201" data-name="Path 4201"
                  d="M5.786,18.937l-2.6-.218L20.312,1.593,18.72,0,0,18.72l2.6.218c2.2.16,3.568.335,3.568.335s.8-.062,2.086-.121C7.645,19.09,6.811,19.012,5.786,18.937Z"
                  fill="#fff"/>
        </g>
        <path id="Path_4202" data-name="Path 4202"
              d="M55.748,5.337l3.185-.1S62.324,4.8,67.009,4.3c10.686-1.146,28.079-2.565,26.965.334C91.728,10.562,53.262,22.763,44.6,22.763,30.262,22.763,0,21.17,0,10.021,0-.858,21.406-.363,30.071.288c2.2.16,3.568.335,3.568.335S55.748-1.129,55.748,5.337Z"
              transform="matrix(0.978, 0.208, -0.208, 0.978, 110.98, 234.796)" fill="#fcd5b2"/>
        <g id="Group_562" data-name="Group 562" transform="matrix(0.978, 0.208, -0.208, 0.978, 114.51, 232.148)"
           opacity="0.4">
            <path id="Path_4203" data-name="Path 4203"
                  d="M55.393,4.042C52.6-.875,33.64.623,33.64.623S32.269.449,30.071.288C21.406-.363,0-.858,0,10.021a5.892,5.892,0,0,0,.058.67C1.243.766,21.66,1.248,30.071,1.881c2.2.16,3.568.335,3.568.335S52.6.718,55.393,5.634Z"
                  fill="#fff"/>
        </g>
        <g id="Group_563" data-name="Group 563" transform="matrix(0.978, 0.208, -0.208, 0.978, 134.87, 241.835)"
           opacity="0.2">
            <path id="Path_4204" data-name="Path 4204"
                  d="M0,5.413s7.612,1.859,19.334.726C33.421,4.778,37,0,37,0L33.819.1S16.9,7.217.37,4.778Z"/>
        </g>
        <g id="Group_564" data-name="Group 564" transform="matrix(0.978, 0.208, -0.208, 0.978, 149.885, 222.23)"
           opacity="0.2">
            <path id="Path_4205" data-name="Path 4205"
                  d="M0,.094C.7.166,1.1.216,1.1.216s1.94-.152,4.66-.2C3.5-.029,1.443.031,0,.094Z"
                  transform="translate(0 17.463)"/>
            <path id="Path_4206" data-name="Path 4206"
                  d="M0,1.593l19.6,19.6-1.969.165c-4.685.493-8.076.939-8.076.939H9.548c0,.033.009.062.009.1l3.185-.1s3.391-.446,8.076-.939l1.969-.165L1.592,0Z"
                  transform="translate(13.651 0)"/>
        </g>
        <path id="Path_4207" data-name="Path 4207"
              d="M.8,1.593A.8.8,0,0,1,0,.8.789.789,0,0,1,.787,0H.8a.8.8,0,1,1,0,1.593Z"
              transform="matrix(0.978, 0.208, -0.208, 0.978, 146.888, 237.062)" fill="#121158"/>
        <path id="Path_4208" data-name="Path 4208"
              d="M.8,1.593A.8.8,0,0,1,0,.8.789.789,0,0,1,.787,0H.8a.8.8,0,1,1,0,1.593Z"
              transform="matrix(0.978, 0.208, -0.208, 0.978, 154.445, 232.155)" fill="#121158"/>
        <path id="Path_4209" data-name="Path 4209"
              d="M.8,1.593A.8.8,0,0,1,0,.8.789.789,0,0,1,.787,0H.8a.8.8,0,0,1,0,1.593Z"
              transform="matrix(0.978, 0.208, -0.208, 0.978, 158.223, 229.702)" fill="#121158"/>
        <path id="Path_4210" data-name="Path 4210"
              d="M.8,1.593A.8.8,0,0,1,0,.8.789.789,0,0,1,.787,0H.8a.8.8,0,1,1,0,1.593Z"
              transform="matrix(0.978, 0.208, -0.208, 0.978, 160.677, 233.48)" fill="#121158"/>
        <path id="Path_4211" data-name="Path 4211"
              d="M.8,1.593A.8.8,0,0,1,0,.8.789.789,0,0,1,.787,0H.8a.8.8,0,0,1,0,1.593Z"
              transform="matrix(0.978, 0.208, -0.208, 0.978, 162.001, 227.248)" fill="#121158"/>
        <path id="Path_4212" data-name="Path 4212"
              d="M.8,1.593A.8.8,0,0,1,0,.8.789.789,0,0,1,.787,0H.8a.8.8,0,1,1,0,1.593Z"
              transform="matrix(0.978, 0.208, -0.208, 0.978, 164.456, 231.027)" fill="#121158"/>
        <path id="Path_4213" data-name="Path 4213"
              d="M.8,1.593A.8.8,0,0,1,0,.8.789.789,0,0,1,.787,0H.8a.8.8,0,1,1,0,1.593Z"
              transform="matrix(0.978, 0.208, -0.208, 0.978, 166.909, 234.805)" fill="#121158"/>
        <path id="Path_4214" data-name="Path 4214"
              d="M.8,1.593A.8.8,0,0,1,0,.8.789.789,0,0,1,.787,0H.8a.8.8,0,1,1,0,1.593Z"
              transform="matrix(0.978, 0.208, -0.208, 0.978, 150.667, 234.609)" fill="#121158"/>
        <path id="Path_4215" data-name="Path 4215"
              d="M.8,1.593A.8.8,0,0,1,0,.8.789.789,0,0,1,.787,0H.8a.8.8,0,1,1,0,1.593Z"
              transform="matrix(0.978, 0.208, -0.208, 0.978, 153.12, 238.387)" fill="#121158"/>
        <path id="Path_4216" data-name="Path 4216"
              d="M.8,1.593A.8.8,0,0,1,0,.8.789.789,0,0,1,.787,0H.8a.8.8,0,0,1,0,1.593Z"
              transform="matrix(0.978, 0.208, -0.208, 0.978, 156.898, 235.933)" fill="#121158"/>
        <path id="Path_4217" data-name="Path 4217"
              d="M.8,1.593A.8.8,0,0,1,0,.8.789.789,0,0,1,.787,0H.8a.8.8,0,0,1,0,1.593Z"
              transform="matrix(0.978, 0.208, -0.208, 0.978, 159.352, 239.712)" fill="#121158"/>
        <path id="Path_4218" data-name="Path 4218"
              d="M.8,1.593A.8.8,0,0,1,0,.8.789.789,0,0,1,.787,0H.8a.8.8,0,1,1,0,1.593Z"
              transform="matrix(0.978, 0.208, -0.208, 0.978, 163.131, 237.258)" fill="#121158"/>
        <path id="Path_4219" data-name="Path 4219"
              d="M.8,1.593A.8.8,0,0,1,0,.8.789.789,0,0,1,.787,0H.8a.8.8,0,1,1,0,1.593Z"
              transform="matrix(0.978, 0.208, -0.208, 0.978, 165.585, 241.036)" fill="#121158"/>
        <path id="Path_4220" data-name="Path 4220"
              d="M.8,1.593A.8.8,0,0,1,0,.8.789.789,0,0,1,.787,0H.8a.8.8,0,1,1,0,1.593Z"
              transform="matrix(0.978, 0.208, -0.208, 0.978, 169.363, 238.583)" fill="#121158"/>
        <path id="Path_4221" data-name="Path 4221"
              d="M.8,1.593A.8.8,0,0,1,0,.8.789.789,0,0,1,.787,0H.8a.8.8,0,0,1,0,1.593Z"
              transform="matrix(0.978, 0.208, -0.208, 0.978, 171.816, 242.361)" fill="#121158"/>
        <path id="Path_4222" data-name="Path 4222"
              d="M.8,1.593A.8.8,0,0,1,0,.8.789.789,0,0,1,.787,0H.8a.8.8,0,1,1,0,1.593Z"
              transform="matrix(0.978, 0.208, -0.208, 0.978, 168.038, 244.815)" fill="#121158"/>
        <path id="Path_4223" data-name="Path 4223"
              d="M.8,1.593A.8.8,0,0,1,0,.8.789.789,0,0,1,.787,0H.8a.8.8,0,0,1,0,1.593Z"
              transform="matrix(0.978, 0.208, -0.208, 0.978, 174.27, 246.139)" fill="#121158"/>
        <path id="Path_4224" data-name="Path 4224"
              d="M45.394,21.414C31.745,21.414,0,20.095,0,7.875a.8.8,0,0,1,1.593,0c0,8.809,22.627,11.946,43.8,11.946,8.8,0,46.561-12.168,48.633-17.6-1.291-1.5-18.762-.342-34.195,1.671a.8.8,0,1,1-.205-1.579C67.373,1.3,92.835-1.754,95.308,1.375a1.4,1.4,0,0,1,.205,1.409C93.038,9.283,54.108,21.414,45.394,21.414Z"
              transform="matrix(0.978, 0.208, -0.208, 0.978, 113.285, 234.081)" fill="#121158"/>
        <path id="Path_4225" data-name="Path 4225"
              d="M34.244,11.626H23.1a.8.8,0,0,1,0-1.593H34.244c5.6,0,19.845-2.714,21.494-4.063a2.049,2.049,0,0,0-.719-1.327C51.713,1.588,39.093,1.862,34.506,2.226a.937.937,0,0,1-.162,0c-.23-.028-23.058-2.815-30.508,3.756a6.174,6.174,0,0,0-2.243,4.851.8.8,0,1,1-1.593,0A7.784,7.784,0,0,1,2.783,4.782c7.832-6.9,29.909-4.366,31.68-4.15C35.9.521,51.722-.574,56.1,3.474A3.548,3.548,0,0,1,57.34,6.151C57.34,9.149,37.716,11.626,34.244,11.626Z"
              transform="matrix(0.978, 0.208, -0.208, 0.978, 113.9, 231.192)" fill="#121158"/>
        <path id="Path_4226" data-name="Path 4226"
              d="M21.5,22.3a.792.792,0,0,1-.563-.233L.233,1.359A.8.8,0,1,1,1.359.233L22.066,20.939A.8.8,0,0,1,21.5,22.3Z"
              transform="matrix(0.978, 0.208, -0.208, 0.978, 162.955, 222.566)" fill="#121158"/>
        <path id="Path_4227" data-name="Path 4227"
              d="M.8,17.52a.8.8,0,0,1-.563-1.359L16.161.233a.8.8,0,0,1,1.126,1.126L1.359,17.287A.792.792,0,0,1,.8,17.52Z"
              transform="matrix(0.978, 0.208, -0.208, 0.978, 147.375, 219.254)" fill="#121158"/>
        <path id="Path_4228" data-name="Path 4228"
              d="M.824,30.262a.794.794,0,0,1-.792-.734C.016,29.315-1.4,8.172,16.424.071a.8.8,0,0,1,.66,1.45C.288,9.154,1.605,29.2,1.621,29.4a.8.8,0,0,1-.734.855C.866,30.262.844,30.262.824,30.262Z"
              transform="matrix(0.978, 0.208, -0.208, 0.978, 169.549, 191.401)" fill="#121158"/>
        <path id="Path_4231" data-name="Path 4231"
              d="M7.129,15.927a.8.8,0,0,1-.79-.709A28.7,28.7,0,0,0,.193,1.315.8.8,0,1,1,1.4.277,29.793,29.793,0,0,1,7.922,15.045a.8.8,0,0,1-.793.882Z"
              transform="matrix(0.978, 0.208, -0.208, 0.978, 163.346, 190.083)" fill="#7272a8"/>
        <path id="Path_4242" data-name="Path 4242"
              d="M16.723,7.442a.8.8,0,0,1-.659-.35c-5.6-8.275-14.6-4.881-14.977-4.732A.8.8,0,0,1,.5.878C.609.838,11.06-3.147,17.383,6.2a.8.8,0,0,1-.659,1.243Z"
              transform="matrix(0.978, 0.208, -0.208, 0.978, 149.684, 200.738)" fill="#121158"/>
        <g id="Ellipse_131" data-name="Ellipse 131" transform="translate(180.176 215.15)" fill="#fff" stroke="#fcd5b2"
           stroke-width="1">
            <circle cx="2.648" cy="2.648" r="2.648" stroke="none"/>
            <circle cx="2.648" cy="2.648" r="2.148" fill="none"/>
        </g>
        <g id="Ellipse_132" data-name="Ellipse 132" transform="translate(141.337 215.15)" fill="#fff" stroke="#fcd5b2"
           stroke-width="1">
            <circle cx="1.765" cy="1.765" r="1.765" stroke="none"/>
            <circle cx="1.765" cy="1.765" r="1.265" fill="none"/>
        </g>
    </g>
</svg>
