<svg xmlns="http://www.w3.org/2000/svg" width="37.445" height="31.148" viewBox="0 0 37.445 31.148">
    <path id="twitter"
          d="M36.85,38.114a14.827,14.827,0,0,1-2.582.871A8.05,8.05,0,0,0,36.393,35.6h0a.422.422,0,0,0-.617-.492h0a14.9,14.9,0,0,1-3.947,1.631,1.006,1.006,0,0,1-.247.031,1.046,1.046,0,0,1-.691-.264,8.073,8.073,0,0,0-5.342-2.016,8.631,8.631,0,0,0-2.558.395,7.821,7.821,0,0,0-5.271,5.635,8.612,8.612,0,0,0-.191,2.973.289.289,0,0,1-.073.227.3.3,0,0,1-.223.1h-.029A21.168,21.168,0,0,1,2.656,36.047h0a.422.422,0,0,0-.692.054h0a8.082,8.082,0,0,0,1.313,9.813A7.234,7.234,0,0,1,1.436,45.2h0a.422.422,0,0,0-.627.364h0a8.083,8.083,0,0,0,4.715,7.447l-.172,0a7.264,7.264,0,0,1-1.36-.13h0a.422.422,0,0,0-.481.543h0a8.091,8.091,0,0,0,6.391,5.5,14.9,14.9,0,0,1-8.344,2.534H.624a.618.618,0,0,0-.6.466.64.64,0,0,0,.306.707,22.158,22.158,0,0,0,11.134,3,22.462,22.462,0,0,0,9.515-2.018A21.011,21.011,0,0,0,27.937,58.4,22.872,22.872,0,0,0,32.2,51.264a22.553,22.553,0,0,0,1.449-7.814v-.123a1.374,1.374,0,0,1,.514-1.069,15.956,15.956,0,0,0,3.21-3.523h0a.422.422,0,0,0-.522-.62Z"
          transform="translate(0 -34.491)" fill="#5a8cef"/>
</svg>
