<svg id="rpg-game" xmlns="http://www.w3.org/2000/svg" width="54" height="54" viewBox="0 0 54 54">
    <path id="Path_4125" data-name="Path 4125"
          d="M18.457,127.359a1.57,1.57,0,0,1-.384-.047A23.826,23.826,0,0,1,0,104.164V87.808a1.583,1.583,0,0,1,.875-1.415,39.18,39.18,0,0,1,17.582-4.385h0a39.181,39.181,0,0,1,17.582,4.385,1.583,1.583,0,0,1,.875,1.415v16.356a23.826,23.826,0,0,1-18.073,23.148A1.57,1.57,0,0,1,18.457,127.359Zm0,0"
          transform="translate(0 -73.359)" fill="#ffce59"/>
    <path id="Path_4126" data-name="Path 4126"
          d="M192.582,86.393A39.181,39.181,0,0,0,175,82.008v45.351a1.57,1.57,0,0,0,.384-.047,23.826,23.826,0,0,0,18.073-23.148V87.808A1.583,1.583,0,0,0,192.582,86.393Zm0,0"
          transform="translate(-156.543 -73.359)" fill="#ffb229"/>
    <path id="Path_4127" data-name="Path 4127"
          d="M45.293,150.978A20.666,20.666,0,0,1,30,131V115.633a35.682,35.682,0,0,1,15.292-3.625,35.685,35.685,0,0,1,15.294,3.625V131A20.666,20.666,0,0,1,45.293,150.978Zm0,0"
          transform="translate(-26.836 -100.194)" fill="#61bcff"/>
    <path id="Path_4128" data-name="Path 4128"
          d="M190.293,131V115.633A35.681,35.681,0,0,0,175,112.008v38.97A20.666,20.666,0,0,0,190.293,131Zm0,0"
          transform="translate(-156.543 -100.194)" fill="#009dff"/>
    <path id="Path_4129" data-name="Path 4129"
          d="M133.175,118.8H121.242a1.582,1.582,0,0,1-1.582-1.582V105.28a1.582,1.582,0,0,1,.6-1.239l21.627-17.153a1.582,1.582,0,0,1,2.1.121l7.458,7.458a1.582,1.582,0,0,1,.121,2.1L134.414,118.2A1.583,1.583,0,0,1,133.175,118.8Zm0,0"
          transform="translate(-107.04 -77.418)" fill="#e2f1ff"/>
    <path id="Path_4130" data-name="Path 4130"
          d="M125.184,154.365h11.932a1.583,1.583,0,0,0,1.24-.6l17.153-21.628a1.582,1.582,0,0,0-.121-2.1l-3.728-3.728L124.066,153.9A1.575,1.575,0,0,0,125.184,154.365Zm0,0"
          transform="translate(-110.981 -112.987)" fill="#c5e3ff"/>
    <path id="Path_4131" data-name="Path 4131"
          d="M248.522,137a1.582,1.582,0,0,1-1.119-2.7l11.932-11.932a1.582,1.582,0,0,1,2.237,2.237l-11.932,11.933A1.579,1.579,0,0,1,248.522,137Zm0,0"
          transform="translate(-220.896 -109.045)" fill="#c5e3ff"/>
    <path id="Path_4132" data-name="Path 4132"
          d="M252.461,140.94a1.577,1.577,0,0,0,1.119-.463l11.932-11.932a1.582,1.582,0,0,0,0-2.236l-14.169,14.169A1.577,1.577,0,0,0,252.461,140.94Zm0,0"
          transform="translate(-224.835 -112.987)" fill="#a5d4ff"/>
    <path id="Path_4133" data-name="Path 4133"
          d="M344.92,70.375a1.582,1.582,0,0,1-1.119-.463l-4.475-4.475a1.582,1.582,0,0,1,0-2.238l4.475-4.475a1.581,1.581,0,0,1,2.237,0l4.475,4.475a1.581,1.581,0,0,1,0,2.237l-4.475,4.475A1.58,1.58,0,0,1,344.92,70.375Zm0,0"
          transform="translate(-303.124 -52.117)" fill="#ffce59"/>
    <path id="Path_4134" data-name="Path 4134"
          d="M366.717,92.827a1.581,1.581,0,0,0,2.237,0l4.475-4.475a1.581,1.581,0,0,0,0-2.237l-2.236-2.237-6.712,6.712Zm0,0"
          transform="translate(-326.039 -75.032)" fill="#ffb229"/>
    <path id="Path_4135" data-name="Path 4135"
          d="M322.6,86.01a1.576,1.576,0,0,1-1.119-.463L311.042,75.106a1.582,1.582,0,1,1,2.237-2.238L323.72,83.309a1.582,1.582,0,0,1-1.119,2.7Zm0,0"
          transform="translate(-277.822 -64.769)" fill="#525967"/>
    <path id="Path_4136" data-name="Path 4136"
          d="M369.7,133.762a1.582,1.582,0,0,0,2.237-2.238l-5.219-5.219-2.237,2.238Zm0,0"
          transform="translate(-326.039 -112.983)" fill="#3b4851"/>
    <path id="Path_4137" data-name="Path 4137"
          d="M385.684,6.608l5.22-5.22A4.746,4.746,0,1,1,397.616,8.1L392.4,13.32Zm0,0" transform="translate(-345.006 0)"
          fill="#61bcff"/>
    <path id="Path_4138" data-name="Path 4138"
          d="M426.092,13.172h0l-8.576,8.576L420.87,25.1l5.22-5.221a4.746,4.746,0,0,0,0-6.71Zm0,0"
          transform="translate(-373.481 -11.783)" fill="#009dff"/>
</svg>
